<mxfile host="app.diagrams.net" modified="2023-09-22T14:48:07.650Z" agent="Mozilla/5.0 (Windows NT 10.0; Win64; x64; rv:109.0) Gecko/20100101 Firefox/117.0" etag="RkMh_1u3Gzkd12eniKe0" version="21.8.0" type="device">
  <diagram name="Page-1" id="13e1069c-82ec-6db2-03f1-153e76fe0fe0">
    <mxGraphModel dx="1843" dy="797" grid="1" gridSize="10" guides="1" tooltips="1" connect="1" arrows="1" fold="1" page="1" pageScale="1" pageWidth="1100" pageHeight="850" background="none" math="0" shadow="0">
      <root>
        <mxCell id="0" />
        <mxCell id="1" parent="0" />
        <mxCell id="7baba1c4bc27f4b0-2" value="&lt;u&gt;Controller&lt;/u&gt;" style="shape=umlLifeline;perimeter=lifelinePerimeter;whiteSpace=wrap;html=1;container=1;collapsible=0;recursiveResize=0;outlineConnect=0;rounded=1;shadow=0;comic=0;labelBackgroundColor=none;strokeWidth=1;fontFamily=Verdana;fontSize=12;align=center;" parent="1" vertex="1">
          <mxGeometry x="740" y="52.5" width="100" height="2907.5" as="geometry" />
        </mxCell>
        <mxCell id="BTWY4qvMuuYK0QyZnwEh-11" value="" style="html=1;points=[];perimeter=orthogonalPerimeter;rounded=0;shadow=0;comic=0;labelBackgroundColor=none;strokeWidth=1;fontFamily=Verdana;fontSize=12;align=center;" parent="7baba1c4bc27f4b0-2" vertex="1">
          <mxGeometry x="42.5" y="1511" width="15" height="829" as="geometry" />
        </mxCell>
        <mxCell id="RgK95_hisoFLhIq8c-8G-148" value="inserisciStatoOpera" style="html=1;verticalAlign=bottom;endArrow=block;labelBackgroundColor=none;fontFamily=Verdana;fontSize=12;edgeStyle=elbowEdgeStyle;elbow=vertical;exitX=1.162;exitY=0.638;exitDx=0;exitDy=0;exitPerimeter=0;" edge="1" parent="7baba1c4bc27f4b0-2">
          <mxGeometry relative="1" as="geometry">
            <mxPoint x="59.930000000000064" y="1961.73" as="sourcePoint" />
            <mxPoint x="210" y="1962.5" as="targetPoint" />
          </mxGeometry>
        </mxCell>
        <mxCell id="RgK95_hisoFLhIq8c-8G-149" value="inserisciLocalizzazione" style="html=1;verticalAlign=bottom;endArrow=block;labelBackgroundColor=none;fontFamily=Verdana;fontSize=12;edgeStyle=elbowEdgeStyle;elbow=horizontal;" edge="1" parent="7baba1c4bc27f4b0-2">
          <mxGeometry x="-0.0057" relative="1" as="geometry">
            <mxPoint x="57.5" y="1933.8600000000001" as="sourcePoint" />
            <mxPoint x="207.5" y="1933.81" as="targetPoint" />
            <mxPoint as="offset" />
          </mxGeometry>
        </mxCell>
        <mxCell id="RgK95_hisoFLhIq8c-8G-150" value="inserisciClassificazione" style="html=1;verticalAlign=bottom;endArrow=block;labelBackgroundColor=none;fontFamily=Verdana;fontSize=12;edgeStyle=elbowEdgeStyle;elbow=vertical;" edge="1" parent="7baba1c4bc27f4b0-2">
          <mxGeometry x="-0.0057" relative="1" as="geometry">
            <mxPoint x="57.5" y="1987.81" as="sourcePoint" />
            <mxPoint x="210" y="1987.5" as="targetPoint" />
            <mxPoint as="offset" />
          </mxGeometry>
        </mxCell>
        <mxCell id="RgK95_hisoFLhIq8c-8G-152" value="&lt;div&gt;inserisci&lt;font style=&quot;font-size: 11px;&quot;&gt;Carratterisriche&lt;/font&gt;&lt;/div&gt;&lt;div&gt;&lt;font style=&quot;font-size: 11px;&quot;&gt;Geometriche&lt;br&gt;&lt;/font&gt;&lt;/div&gt;" style="html=1;verticalAlign=bottom;endArrow=block;labelBackgroundColor=none;fontFamily=Verdana;fontSize=12;edgeStyle=elbowEdgeStyle;elbow=vertical;" edge="1" parent="7baba1c4bc27f4b0-2">
          <mxGeometry x="-0.0057" relative="1" as="geometry">
            <mxPoint x="57.5" y="2049.81" as="sourcePoint" />
            <mxPoint x="200" y="2054.5" as="targetPoint" />
            <mxPoint as="offset" />
          </mxGeometry>
        </mxCell>
        <mxCell id="RgK95_hisoFLhIq8c-8G-153" value="&lt;div&gt;inserisci&lt;font style=&quot;font-size: 11px;&quot;&gt;Intervento&lt;/font&gt;&lt;/div&gt;&lt;div&gt;&lt;font style=&quot;font-size: 11px;&quot;&gt;Strutturale&lt;/font&gt;&lt;/div&gt;" style="html=1;verticalAlign=bottom;endArrow=block;labelBackgroundColor=none;fontFamily=Verdana;fontSize=12;edgeStyle=elbowEdgeStyle;elbow=vertical;" edge="1" parent="7baba1c4bc27f4b0-2">
          <mxGeometry x="-0.0057" relative="1" as="geometry">
            <mxPoint x="57.5" y="2084.81" as="sourcePoint" />
            <mxPoint x="210" y="2084.5" as="targetPoint" />
            <mxPoint as="offset" />
          </mxGeometry>
        </mxCell>
        <mxCell id="RgK95_hisoFLhIq8c-8G-154" value="&lt;div&gt;inserisci&lt;font style=&quot;font-size: 11px;&quot;&gt;Intervento&lt;/font&gt;&lt;/div&gt;&lt;div&gt;&lt;font style=&quot;font-size: 11px;&quot;&gt;Manutenzione&lt;br&gt;&lt;/font&gt;&lt;/div&gt;" style="html=1;verticalAlign=bottom;endArrow=block;labelBackgroundColor=none;fontFamily=Verdana;fontSize=12;edgeStyle=elbowEdgeStyle;elbow=vertical;" edge="1" parent="7baba1c4bc27f4b0-2">
          <mxGeometry x="-0.0057" relative="1" as="geometry">
            <mxPoint x="57.5" y="2122.81" as="sourcePoint" />
            <mxPoint x="210" y="2122.5" as="targetPoint" />
            <mxPoint as="offset" />
          </mxGeometry>
        </mxCell>
        <mxCell id="RgK95_hisoFLhIq8c-8G-155" value="&lt;div&gt;inserisci&lt;font style=&quot;font-size: 11px;&quot;&gt;Ispezione&lt;/font&gt;&lt;/div&gt;&lt;div&gt;&lt;font style=&quot;font-size: 11px;&quot;&gt;Pregressa&lt;br&gt;&lt;/font&gt;&lt;/div&gt;" style="html=1;verticalAlign=bottom;endArrow=block;labelBackgroundColor=none;fontFamily=Verdana;fontSize=12;edgeStyle=elbowEdgeStyle;elbow=vertical;" edge="1" parent="7baba1c4bc27f4b0-2">
          <mxGeometry x="-0.0057" relative="1" as="geometry">
            <mxPoint x="57.5" y="2158.81" as="sourcePoint" />
            <mxPoint x="210" y="2158.5" as="targetPoint" />
            <mxPoint as="offset" />
          </mxGeometry>
        </mxCell>
        <mxCell id="RgK95_hisoFLhIq8c-8G-156" value="&lt;div&gt;inserisci&lt;font style=&quot;font-size: 11px;&quot;&gt;AttivitÃ &lt;/font&gt;&lt;/div&gt;&lt;div&gt;&lt;font style=&quot;font-size: 11px;&quot;&gt;Monitoraggio&lt;br&gt;&lt;/font&gt;&lt;/div&gt;" style="html=1;verticalAlign=bottom;endArrow=block;labelBackgroundColor=none;fontFamily=Verdana;fontSize=12;edgeStyle=elbowEdgeStyle;elbow=vertical;" edge="1" parent="7baba1c4bc27f4b0-2">
          <mxGeometry x="-0.0057" relative="1" as="geometry">
            <mxPoint x="57.5" y="2194.81" as="sourcePoint" />
            <mxPoint x="210" y="2194.5" as="targetPoint" />
            <mxPoint as="offset" />
          </mxGeometry>
        </mxCell>
        <mxCell id="RgK95_hisoFLhIq8c-8G-157" value="&lt;div&gt;inserisci&lt;font style=&quot;font-size: 11px;&quot;&gt;ReteStradale&lt;/font&gt;&lt;/div&gt;" style="html=1;verticalAlign=bottom;endArrow=block;labelBackgroundColor=none;fontFamily=Verdana;fontSize=12;edgeStyle=elbowEdgeStyle;elbow=horizontal;entryX=-0.135;entryY=0.701;entryDx=0;entryDy=0;entryPerimeter=0;" edge="1" parent="7baba1c4bc27f4b0-2">
          <mxGeometry x="-0.0057" relative="1" as="geometry">
            <mxPoint x="57.5" y="2219.81" as="sourcePoint" />
            <mxPoint x="207.88749999999982" y="2219.6725" as="targetPoint" />
            <mxPoint as="offset" />
          </mxGeometry>
        </mxCell>
        <mxCell id="RgK95_hisoFLhIq8c-8G-158" value="&lt;div&gt;inserisci&lt;font style=&quot;font-size: 11px;&quot;&gt;Classe&lt;/font&gt;&lt;/div&gt;&lt;div&gt;&lt;font style=&quot;font-size: 11px;&quot;&gt;Conseguenza&lt;/font&gt;&lt;/div&gt;" style="html=1;verticalAlign=bottom;endArrow=block;labelBackgroundColor=none;fontFamily=Verdana;fontSize=12;edgeStyle=elbowEdgeStyle;elbow=horizontal;entryX=-0.135;entryY=0.796;entryDx=0;entryDy=0;entryPerimeter=0;" edge="1" parent="7baba1c4bc27f4b0-2">
          <mxGeometry x="-0.0057" relative="1" as="geometry">
            <mxPoint x="57.5" y="2261.81" as="sourcePoint" />
            <mxPoint x="207.88749999999982" y="2261.8100000000004" as="targetPoint" />
            <mxPoint as="offset" />
          </mxGeometry>
        </mxCell>
        <mxCell id="RgK95_hisoFLhIq8c-8G-159" value="&lt;div&gt;inserisci&lt;font style=&quot;font-size: 11px;&quot;&gt;Documento&lt;/font&gt;&lt;/div&gt;&lt;div&gt;&lt;font style=&quot;font-size: 11px;&quot;&gt;Progettuale&lt;br&gt;&lt;/font&gt;&lt;/div&gt;" style="html=1;verticalAlign=bottom;endArrow=block;labelBackgroundColor=none;fontFamily=Verdana;fontSize=12;edgeStyle=elbowEdgeStyle;elbow=vertical;" edge="1" parent="7baba1c4bc27f4b0-2">
          <mxGeometry x="-0.0057" relative="1" as="geometry">
            <mxPoint x="57.5" y="2303.81" as="sourcePoint" />
            <mxPoint x="210" y="2303.5" as="targetPoint" />
            <mxPoint as="offset" />
          </mxGeometry>
        </mxCell>
        <mxCell id="RgK95_hisoFLhIq8c-8G-160" value="inserisciPonte" style="html=1;verticalAlign=bottom;endArrow=block;labelBackgroundColor=none;fontFamily=Verdana;fontSize=12;edgeStyle=elbowEdgeStyle;elbow=vertical;" edge="1" parent="7baba1c4bc27f4b0-2">
          <mxGeometry x="-0.0057" relative="1" as="geometry">
            <mxPoint x="57.5" y="2331.81" as="sourcePoint" />
            <mxPoint x="210" y="2332.5" as="targetPoint" />
            <mxPoint as="offset" />
          </mxGeometry>
        </mxCell>
        <mxCell id="RgK95_hisoFLhIq8c-8G-178" value="" style="html=1;points=[];perimeter=orthogonalPerimeter;rounded=0;shadow=0;comic=0;labelBackgroundColor=none;strokeWidth=1;fontFamily=Verdana;fontSize=12;align=center;" vertex="1" parent="7baba1c4bc27f4b0-2">
          <mxGeometry x="42.5" y="2817.5" width="17.5" height="60" as="geometry" />
        </mxCell>
        <mxCell id="7baba1c4bc27f4b0-3" value="&lt;u&gt;Model&lt;/u&gt;" style="shape=umlLifeline;perimeter=lifelinePerimeter;whiteSpace=wrap;html=1;container=1;collapsible=0;recursiveResize=0;outlineConnect=0;rounded=1;shadow=0;comic=0;labelBackgroundColor=none;strokeWidth=1;fontFamily=Verdana;fontSize=12;align=center;" parent="1" vertex="1">
          <mxGeometry x="580" y="52.5" width="100" height="1987.5" as="geometry" />
        </mxCell>
        <mxCell id="7baba1c4bc27f4b0-13" value="" style="html=1;points=[];perimeter=orthogonalPerimeter;rounded=0;shadow=0;comic=0;labelBackgroundColor=none;strokeWidth=1;fontFamily=Verdana;fontSize=12;align=center;" parent="7baba1c4bc27f4b0-3" vertex="1">
          <mxGeometry x="45" y="1179" width="15" height="751" as="geometry" />
        </mxCell>
        <mxCell id="RgK95_hisoFLhIq8c-8G-132" value="nuovoStatoOpera" style="html=1;verticalAlign=bottom;endArrow=block;labelBackgroundColor=none;fontFamily=Verdana;fontSize=12;edgeStyle=elbowEdgeStyle;elbow=vertical;exitX=1.162;exitY=0.638;exitDx=0;exitDy=0;exitPerimeter=0;" edge="1" parent="7baba1c4bc27f4b0-3">
          <mxGeometry relative="1" as="geometry">
            <mxPoint x="62.430000000000064" y="1552.42" as="sourcePoint" />
            <mxPoint x="200" y="1553.55" as="targetPoint" />
          </mxGeometry>
        </mxCell>
        <mxCell id="RgK95_hisoFLhIq8c-8G-136" value="nuovaClassificazione" style="html=1;verticalAlign=bottom;endArrow=block;labelBackgroundColor=none;fontFamily=Verdana;fontSize=12;edgeStyle=elbowEdgeStyle;elbow=vertical;" edge="1" parent="7baba1c4bc27f4b0-3">
          <mxGeometry x="-0.0057" relative="1" as="geometry">
            <mxPoint x="60" y="1576.5" as="sourcePoint" />
            <mxPoint x="203" y="1578.45" as="targetPoint" />
            <mxPoint as="offset" />
          </mxGeometry>
        </mxCell>
        <mxCell id="RgK95_hisoFLhIq8c-8G-137" value="&lt;font style=&quot;font-size: 11px;&quot;&gt;nuoviDatiGeomorfologici&lt;/font&gt;" style="html=1;verticalAlign=bottom;endArrow=block;labelBackgroundColor=none;fontFamily=Verdana;fontSize=12;edgeStyle=elbowEdgeStyle;elbow=vertical;" edge="1" parent="7baba1c4bc27f4b0-3">
          <mxGeometry x="-0.0057" relative="1" as="geometry">
            <mxPoint x="60" y="1596.5" as="sourcePoint" />
            <mxPoint x="203" y="1598.45" as="targetPoint" />
            <mxPoint as="offset" />
          </mxGeometry>
        </mxCell>
        <mxCell id="RgK95_hisoFLhIq8c-8G-138" value="&lt;div&gt;&lt;font style=&quot;font-size: 11px;&quot;&gt;nuoveCarratterisriche&lt;/font&gt;&lt;/div&gt;&lt;div&gt;&lt;font style=&quot;font-size: 11px;&quot;&gt;Geometriche&lt;br&gt;&lt;/font&gt;&lt;/div&gt;" style="html=1;verticalAlign=bottom;endArrow=block;labelBackgroundColor=none;fontFamily=Verdana;fontSize=12;edgeStyle=elbowEdgeStyle;elbow=vertical;" edge="1" parent="7baba1c4bc27f4b0-3">
          <mxGeometry x="-0.0057" relative="1" as="geometry">
            <mxPoint x="60" y="1627.5" as="sourcePoint" />
            <mxPoint x="200" y="1637.5" as="targetPoint" />
            <mxPoint as="offset" />
          </mxGeometry>
        </mxCell>
        <mxCell id="RgK95_hisoFLhIq8c-8G-139" value="&lt;div&gt;&lt;font style=&quot;font-size: 11px;&quot;&gt;nuovoIntervento&lt;/font&gt;&lt;/div&gt;&lt;div&gt;&lt;font style=&quot;font-size: 11px;&quot;&gt;Strutturale&lt;/font&gt;&lt;/div&gt;" style="html=1;verticalAlign=bottom;endArrow=block;labelBackgroundColor=none;fontFamily=Verdana;fontSize=12;edgeStyle=elbowEdgeStyle;elbow=vertical;" edge="1" parent="7baba1c4bc27f4b0-3">
          <mxGeometry x="-0.0057" relative="1" as="geometry">
            <mxPoint x="60" y="1661.5" as="sourcePoint" />
            <mxPoint x="200" y="1661.5" as="targetPoint" />
            <mxPoint as="offset" />
          </mxGeometry>
        </mxCell>
        <mxCell id="RgK95_hisoFLhIq8c-8G-140" value="&lt;div&gt;&lt;font style=&quot;font-size: 11px;&quot;&gt;nuovoIntervento&lt;/font&gt;&lt;/div&gt;&lt;div&gt;&lt;font style=&quot;font-size: 11px;&quot;&gt;Manutenzione&lt;br&gt;&lt;/font&gt;&lt;/div&gt;" style="html=1;verticalAlign=bottom;endArrow=block;labelBackgroundColor=none;fontFamily=Verdana;fontSize=12;edgeStyle=elbowEdgeStyle;elbow=vertical;" edge="1" parent="7baba1c4bc27f4b0-3">
          <mxGeometry x="-0.0057" relative="1" as="geometry">
            <mxPoint x="60" y="1697.5" as="sourcePoint" />
            <mxPoint x="200" y="1697.5" as="targetPoint" />
            <mxPoint as="offset" />
          </mxGeometry>
        </mxCell>
        <mxCell id="RgK95_hisoFLhIq8c-8G-141" value="&lt;div&gt;&lt;font style=&quot;font-size: 11px;&quot;&gt;nuovaIspezione&lt;/font&gt;&lt;/div&gt;&lt;div&gt;&lt;font style=&quot;font-size: 11px;&quot;&gt;Pregressa&lt;br&gt;&lt;/font&gt;&lt;/div&gt;" style="html=1;verticalAlign=bottom;endArrow=block;labelBackgroundColor=none;fontFamily=Verdana;fontSize=12;edgeStyle=elbowEdgeStyle;elbow=vertical;" edge="1" parent="7baba1c4bc27f4b0-3">
          <mxGeometry x="-0.0057" relative="1" as="geometry">
            <mxPoint x="60" y="1737.5" as="sourcePoint" />
            <mxPoint x="200" y="1737.5" as="targetPoint" />
            <mxPoint as="offset" />
          </mxGeometry>
        </mxCell>
        <mxCell id="RgK95_hisoFLhIq8c-8G-142" value="&lt;div&gt;&lt;font style=&quot;font-size: 11px;&quot;&gt;nuovaAttivitÃ &lt;/font&gt;&lt;/div&gt;&lt;div&gt;&lt;font style=&quot;font-size: 11px;&quot;&gt;Monitoraggio&lt;br&gt;&lt;/font&gt;&lt;/div&gt;" style="html=1;verticalAlign=bottom;endArrow=block;labelBackgroundColor=none;fontFamily=Verdana;fontSize=12;edgeStyle=elbowEdgeStyle;elbow=vertical;" edge="1" parent="7baba1c4bc27f4b0-3">
          <mxGeometry x="-0.0057" relative="1" as="geometry">
            <mxPoint x="60" y="1777.5" as="sourcePoint" />
            <mxPoint x="200" y="1777.5" as="targetPoint" />
            <mxPoint as="offset" />
          </mxGeometry>
        </mxCell>
        <mxCell id="RgK95_hisoFLhIq8c-8G-143" value="&lt;div&gt;&lt;font style=&quot;font-size: 11px;&quot;&gt;nuovaReteStradale&lt;/font&gt;&lt;/div&gt;" style="html=1;verticalAlign=bottom;endArrow=block;labelBackgroundColor=none;fontFamily=Verdana;fontSize=12;edgeStyle=elbowEdgeStyle;elbow=horizontal;" edge="1" parent="7baba1c4bc27f4b0-3">
          <mxGeometry x="-0.0057" relative="1" as="geometry">
            <mxPoint x="60" y="1807.5" as="sourcePoint" />
            <mxPoint x="200" y="1807.5" as="targetPoint" />
            <mxPoint as="offset" />
          </mxGeometry>
        </mxCell>
        <mxCell id="RgK95_hisoFLhIq8c-8G-144" value="&lt;div&gt;&lt;font style=&quot;font-size: 11px;&quot;&gt;nuovaClasse&lt;/font&gt;&lt;/div&gt;&lt;div&gt;&lt;font style=&quot;font-size: 11px;&quot;&gt;Conseguenza&lt;/font&gt;&lt;/div&gt;" style="html=1;verticalAlign=bottom;endArrow=block;labelBackgroundColor=none;fontFamily=Verdana;fontSize=12;edgeStyle=elbowEdgeStyle;elbow=horizontal;" edge="1" parent="7baba1c4bc27f4b0-3">
          <mxGeometry x="-0.0057" relative="1" as="geometry">
            <mxPoint x="60" y="1847.5" as="sourcePoint" />
            <mxPoint x="200" y="1847.5" as="targetPoint" />
            <mxPoint as="offset" />
          </mxGeometry>
        </mxCell>
        <mxCell id="RgK95_hisoFLhIq8c-8G-145" value="&lt;div&gt;&lt;font style=&quot;font-size: 11px;&quot;&gt;nuovoDocumento&lt;/font&gt;&lt;/div&gt;&lt;div&gt;&lt;font style=&quot;font-size: 11px;&quot;&gt;Progettuale&lt;br&gt;&lt;/font&gt;&lt;/div&gt;" style="html=1;verticalAlign=bottom;endArrow=block;labelBackgroundColor=none;fontFamily=Verdana;fontSize=12;edgeStyle=elbowEdgeStyle;elbow=vertical;" edge="1" parent="7baba1c4bc27f4b0-3">
          <mxGeometry x="-0.0057" relative="1" as="geometry">
            <mxPoint x="60" y="1887.5" as="sourcePoint" />
            <mxPoint x="200" y="1887.5" as="targetPoint" />
            <mxPoint as="offset" />
          </mxGeometry>
        </mxCell>
        <mxCell id="RgK95_hisoFLhIq8c-8G-146" value="nuovoPonte" style="html=1;verticalAlign=bottom;endArrow=block;labelBackgroundColor=none;fontFamily=Verdana;fontSize=12;edgeStyle=elbowEdgeStyle;elbow=vertical;" edge="1" parent="7baba1c4bc27f4b0-3">
          <mxGeometry x="-0.0057" relative="1" as="geometry">
            <mxPoint x="60" y="1916.5" as="sourcePoint" />
            <mxPoint x="200" y="1916.5" as="targetPoint" />
            <mxPoint as="offset" />
          </mxGeometry>
        </mxCell>
        <mxCell id="7baba1c4bc27f4b0-8" value="&lt;u&gt;View&lt;/u&gt;" style="shape=umlLifeline;perimeter=lifelinePerimeter;whiteSpace=wrap;html=1;container=1;collapsible=0;recursiveResize=0;outlineConnect=0;rounded=1;shadow=0;comic=0;labelBackgroundColor=none;strokeWidth=1;fontFamily=Verdana;fontSize=12;align=center;size=38;" parent="1" vertex="1">
          <mxGeometry x="260" y="52.5" width="150" height="2907.5" as="geometry" />
        </mxCell>
        <mxCell id="7baba1c4bc27f4b0-9" value="" style="html=1;points=[];perimeter=orthogonalPerimeter;rounded=0;shadow=0;comic=0;labelBackgroundColor=none;strokeWidth=1;fontFamily=Verdana;fontSize=12;align=center;" parent="7baba1c4bc27f4b0-8" vertex="1">
          <mxGeometry x="46" y="100" width="15" height="1410" as="geometry" />
        </mxCell>
        <mxCell id="RgK95_hisoFLhIq8c-8G-21" value="" style="html=1;points=[];perimeter=orthogonalPerimeter;rounded=0;shadow=0;comic=0;labelBackgroundColor=none;strokeWidth=1;fontFamily=Verdana;fontSize=12;align=center;" vertex="1" parent="7baba1c4bc27f4b0-8">
          <mxGeometry x="50" y="107.5" width="15" height="22.5" as="geometry" />
        </mxCell>
        <mxCell id="RgK95_hisoFLhIq8c-8G-20" value="" style="curved=1;endArrow=classic;html=1;rounded=0;fontSize=12;entryX=1;entryY=0.8;entryDx=0;entryDy=0;entryPerimeter=0;" edge="1" parent="7baba1c4bc27f4b0-8">
          <mxGeometry width="50" height="50" relative="1" as="geometry">
            <mxPoint x="68" y="108" as="sourcePoint" />
            <mxPoint x="68" y="125.5" as="targetPoint" />
            <Array as="points">
              <mxPoint x="87" y="107.5" />
              <mxPoint x="97" y="130.5" />
            </Array>
          </mxGeometry>
        </mxCell>
        <mxCell id="RgK95_hisoFLhIq8c-8G-23" value="" style="html=1;points=[];perimeter=orthogonalPerimeter;rounded=0;shadow=0;comic=0;labelBackgroundColor=none;strokeWidth=1;fontFamily=Verdana;fontSize=12;align=center;" vertex="1" parent="7baba1c4bc27f4b0-8">
          <mxGeometry x="50" y="147.5" width="15" height="22.5" as="geometry" />
        </mxCell>
        <mxCell id="RgK95_hisoFLhIq8c-8G-24" value="" style="curved=1;endArrow=classic;html=1;rounded=0;fontSize=12;entryX=1;entryY=0.8;entryDx=0;entryDy=0;entryPerimeter=0;" edge="1" parent="7baba1c4bc27f4b0-8">
          <mxGeometry width="50" height="50" relative="1" as="geometry">
            <mxPoint x="68" y="148" as="sourcePoint" />
            <mxPoint x="68" y="165.5" as="targetPoint" />
            <Array as="points">
              <mxPoint x="87" y="147.5" />
              <mxPoint x="97" y="170.5" />
            </Array>
          </mxGeometry>
        </mxCell>
        <mxCell id="RgK95_hisoFLhIq8c-8G-25" value="&lt;div&gt;Validazione&lt;/div&gt;&lt;div&gt;Form&lt;br&gt;&lt;/div&gt;" style="text;html=1;strokeColor=none;fillColor=none;align=center;verticalAlign=middle;whiteSpace=wrap;rounded=0;" vertex="1" parent="7baba1c4bc27f4b0-8">
          <mxGeometry x="90" y="137.5" width="60" height="30" as="geometry" />
        </mxCell>
        <mxCell id="RgK95_hisoFLhIq8c-8G-26" value="" style="html=1;points=[];perimeter=orthogonalPerimeter;rounded=0;shadow=0;comic=0;labelBackgroundColor=none;strokeWidth=1;fontFamily=Verdana;fontSize=12;align=center;" vertex="1" parent="7baba1c4bc27f4b0-8">
          <mxGeometry x="50" y="187.5" width="15" height="22.5" as="geometry" />
        </mxCell>
        <mxCell id="RgK95_hisoFLhIq8c-8G-27" value="" style="curved=1;endArrow=classic;html=1;rounded=0;fontSize=12;entryX=1;entryY=0.8;entryDx=0;entryDy=0;entryPerimeter=0;" edge="1" parent="7baba1c4bc27f4b0-8">
          <mxGeometry width="50" height="50" relative="1" as="geometry">
            <mxPoint x="68" y="188" as="sourcePoint" />
            <mxPoint x="68" y="205.5" as="targetPoint" />
            <Array as="points">
              <mxPoint x="87" y="187.5" />
              <mxPoint x="97" y="210.5" />
            </Array>
          </mxGeometry>
        </mxCell>
        <mxCell id="RgK95_hisoFLhIq8c-8G-28" value="&lt;div&gt;Validazione&lt;/div&gt;&lt;div&gt;Form&lt;br&gt;&lt;/div&gt;" style="text;html=1;strokeColor=none;fillColor=none;align=center;verticalAlign=middle;whiteSpace=wrap;rounded=0;" vertex="1" parent="7baba1c4bc27f4b0-8">
          <mxGeometry x="90" y="177.5" width="60" height="30" as="geometry" />
        </mxCell>
        <mxCell id="RgK95_hisoFLhIq8c-8G-29" value="" style="html=1;points=[];perimeter=orthogonalPerimeter;rounded=0;shadow=0;comic=0;labelBackgroundColor=none;strokeWidth=1;fontFamily=Verdana;fontSize=12;align=center;" vertex="1" parent="7baba1c4bc27f4b0-8">
          <mxGeometry x="50" y="237.5" width="15" height="22.5" as="geometry" />
        </mxCell>
        <mxCell id="RgK95_hisoFLhIq8c-8G-30" value="" style="curved=1;endArrow=classic;html=1;rounded=0;fontSize=12;entryX=1;entryY=0.8;entryDx=0;entryDy=0;entryPerimeter=0;" edge="1" parent="7baba1c4bc27f4b0-8">
          <mxGeometry width="50" height="50" relative="1" as="geometry">
            <mxPoint x="68" y="238" as="sourcePoint" />
            <mxPoint x="68" y="255.5" as="targetPoint" />
            <Array as="points">
              <mxPoint x="87" y="237.5" />
              <mxPoint x="97" y="260.5" />
            </Array>
          </mxGeometry>
        </mxCell>
        <mxCell id="RgK95_hisoFLhIq8c-8G-31" value="&lt;div&gt;Validazione&lt;/div&gt;&lt;div&gt;Form&lt;br&gt;&lt;/div&gt;" style="text;html=1;strokeColor=none;fillColor=none;align=center;verticalAlign=middle;whiteSpace=wrap;rounded=0;" vertex="1" parent="7baba1c4bc27f4b0-8">
          <mxGeometry x="90" y="227.5" width="60" height="30" as="geometry" />
        </mxCell>
        <mxCell id="RgK95_hisoFLhIq8c-8G-32" value="" style="html=1;points=[];perimeter=orthogonalPerimeter;rounded=0;shadow=0;comic=0;labelBackgroundColor=none;strokeWidth=1;fontFamily=Verdana;fontSize=12;align=center;" vertex="1" parent="7baba1c4bc27f4b0-8">
          <mxGeometry x="50" y="277.5" width="15" height="22.5" as="geometry" />
        </mxCell>
        <mxCell id="RgK95_hisoFLhIq8c-8G-33" value="" style="curved=1;endArrow=classic;html=1;rounded=0;fontSize=12;entryX=1;entryY=0.8;entryDx=0;entryDy=0;entryPerimeter=0;" edge="1" parent="7baba1c4bc27f4b0-8">
          <mxGeometry width="50" height="50" relative="1" as="geometry">
            <mxPoint x="68" y="278" as="sourcePoint" />
            <mxPoint x="68" y="295.5" as="targetPoint" />
            <Array as="points">
              <mxPoint x="87" y="277.5" />
              <mxPoint x="97" y="300.5" />
            </Array>
          </mxGeometry>
        </mxCell>
        <mxCell id="RgK95_hisoFLhIq8c-8G-34" value="&lt;div&gt;Validazione&lt;/div&gt;&lt;div&gt;Form&lt;br&gt;&lt;/div&gt;" style="text;html=1;strokeColor=none;fillColor=none;align=center;verticalAlign=middle;whiteSpace=wrap;rounded=0;" vertex="1" parent="7baba1c4bc27f4b0-8">
          <mxGeometry x="90" y="267.5" width="60" height="30" as="geometry" />
        </mxCell>
        <mxCell id="RgK95_hisoFLhIq8c-8G-35" value="" style="html=1;points=[];perimeter=orthogonalPerimeter;rounded=0;shadow=0;comic=0;labelBackgroundColor=none;strokeWidth=1;fontFamily=Verdana;fontSize=12;align=center;" vertex="1" parent="7baba1c4bc27f4b0-8">
          <mxGeometry x="50" y="327.5" width="15" height="22.5" as="geometry" />
        </mxCell>
        <mxCell id="RgK95_hisoFLhIq8c-8G-36" value="" style="curved=1;endArrow=classic;html=1;rounded=0;fontSize=12;entryX=1;entryY=0.8;entryDx=0;entryDy=0;entryPerimeter=0;" edge="1" parent="7baba1c4bc27f4b0-8">
          <mxGeometry width="50" height="50" relative="1" as="geometry">
            <mxPoint x="68" y="328" as="sourcePoint" />
            <mxPoint x="68" y="345.5" as="targetPoint" />
            <Array as="points">
              <mxPoint x="87" y="327.5" />
              <mxPoint x="97" y="350.5" />
            </Array>
          </mxGeometry>
        </mxCell>
        <mxCell id="RgK95_hisoFLhIq8c-8G-37" value="&lt;div&gt;Validazione&lt;/div&gt;&lt;div&gt;Form&lt;br&gt;&lt;/div&gt;" style="text;html=1;strokeColor=none;fillColor=none;align=center;verticalAlign=middle;whiteSpace=wrap;rounded=0;" vertex="1" parent="7baba1c4bc27f4b0-8">
          <mxGeometry x="90" y="317.5" width="60" height="30" as="geometry" />
        </mxCell>
        <mxCell id="RgK95_hisoFLhIq8c-8G-38" value="" style="html=1;points=[];perimeter=orthogonalPerimeter;rounded=0;shadow=0;comic=0;labelBackgroundColor=none;strokeWidth=1;fontFamily=Verdana;fontSize=12;align=center;" vertex="1" parent="7baba1c4bc27f4b0-8">
          <mxGeometry x="50" y="377.5" width="15" height="22.5" as="geometry" />
        </mxCell>
        <mxCell id="RgK95_hisoFLhIq8c-8G-39" value="" style="curved=1;endArrow=classic;html=1;rounded=0;fontSize=12;entryX=1;entryY=0.8;entryDx=0;entryDy=0;entryPerimeter=0;" edge="1" parent="7baba1c4bc27f4b0-8">
          <mxGeometry width="50" height="50" relative="1" as="geometry">
            <mxPoint x="68" y="378" as="sourcePoint" />
            <mxPoint x="68" y="395.5" as="targetPoint" />
            <Array as="points">
              <mxPoint x="87" y="377.5" />
              <mxPoint x="97" y="400.5" />
            </Array>
          </mxGeometry>
        </mxCell>
        <mxCell id="RgK95_hisoFLhIq8c-8G-40" value="&lt;div&gt;Validazione&lt;/div&gt;&lt;div&gt;Form&lt;br&gt;&lt;/div&gt;" style="text;html=1;strokeColor=none;fillColor=none;align=center;verticalAlign=middle;whiteSpace=wrap;rounded=0;" vertex="1" parent="7baba1c4bc27f4b0-8">
          <mxGeometry x="90" y="367.5" width="60" height="30" as="geometry" />
        </mxCell>
        <mxCell id="RgK95_hisoFLhIq8c-8G-41" value="" style="html=1;points=[];perimeter=orthogonalPerimeter;rounded=0;shadow=0;comic=0;labelBackgroundColor=none;strokeWidth=1;fontFamily=Verdana;fontSize=12;align=center;" vertex="1" parent="7baba1c4bc27f4b0-8">
          <mxGeometry x="50" y="427.5" width="15" height="22.5" as="geometry" />
        </mxCell>
        <mxCell id="RgK95_hisoFLhIq8c-8G-42" value="" style="curved=1;endArrow=classic;html=1;rounded=0;fontSize=12;entryX=1;entryY=0.8;entryDx=0;entryDy=0;entryPerimeter=0;" edge="1" parent="7baba1c4bc27f4b0-8">
          <mxGeometry width="50" height="50" relative="1" as="geometry">
            <mxPoint x="68" y="428" as="sourcePoint" />
            <mxPoint x="68" y="445.5" as="targetPoint" />
            <Array as="points">
              <mxPoint x="87" y="427.5" />
              <mxPoint x="97" y="450.5" />
            </Array>
          </mxGeometry>
        </mxCell>
        <mxCell id="RgK95_hisoFLhIq8c-8G-43" value="&lt;div&gt;Validazione&lt;/div&gt;&lt;div&gt;Form&lt;br&gt;&lt;/div&gt;" style="text;html=1;strokeColor=none;fillColor=none;align=center;verticalAlign=middle;whiteSpace=wrap;rounded=0;" vertex="1" parent="7baba1c4bc27f4b0-8">
          <mxGeometry x="90" y="417.5" width="60" height="30" as="geometry" />
        </mxCell>
        <mxCell id="RgK95_hisoFLhIq8c-8G-44" value="" style="html=1;points=[];perimeter=orthogonalPerimeter;rounded=0;shadow=0;comic=0;labelBackgroundColor=none;strokeWidth=1;fontFamily=Verdana;fontSize=12;align=center;" vertex="1" parent="7baba1c4bc27f4b0-8">
          <mxGeometry x="50" y="467.5" width="15" height="22.5" as="geometry" />
        </mxCell>
        <mxCell id="RgK95_hisoFLhIq8c-8G-45" value="" style="curved=1;endArrow=classic;html=1;rounded=0;fontSize=12;entryX=1;entryY=0.8;entryDx=0;entryDy=0;entryPerimeter=0;" edge="1" parent="7baba1c4bc27f4b0-8">
          <mxGeometry width="50" height="50" relative="1" as="geometry">
            <mxPoint x="68" y="468" as="sourcePoint" />
            <mxPoint x="68" y="485.5" as="targetPoint" />
            <Array as="points">
              <mxPoint x="87" y="467.5" />
              <mxPoint x="97" y="490.5" />
            </Array>
          </mxGeometry>
        </mxCell>
        <mxCell id="RgK95_hisoFLhIq8c-8G-46" value="&lt;div&gt;Validazione&lt;/div&gt;&lt;div&gt;Form&lt;br&gt;&lt;/div&gt;" style="text;html=1;strokeColor=none;fillColor=none;align=center;verticalAlign=middle;whiteSpace=wrap;rounded=0;" vertex="1" parent="7baba1c4bc27f4b0-8">
          <mxGeometry x="90" y="457.5" width="60" height="30" as="geometry" />
        </mxCell>
        <mxCell id="RgK95_hisoFLhIq8c-8G-47" value="" style="html=1;points=[];perimeter=orthogonalPerimeter;rounded=0;shadow=0;comic=0;labelBackgroundColor=none;strokeWidth=1;fontFamily=Verdana;fontSize=12;align=center;" vertex="1" parent="7baba1c4bc27f4b0-8">
          <mxGeometry x="50" y="507.5" width="15" height="22.5" as="geometry" />
        </mxCell>
        <mxCell id="RgK95_hisoFLhIq8c-8G-48" value="" style="curved=1;endArrow=classic;html=1;rounded=0;fontSize=12;entryX=1;entryY=0.8;entryDx=0;entryDy=0;entryPerimeter=0;" edge="1" parent="7baba1c4bc27f4b0-8">
          <mxGeometry width="50" height="50" relative="1" as="geometry">
            <mxPoint x="68" y="508" as="sourcePoint" />
            <mxPoint x="68" y="525.5" as="targetPoint" />
            <Array as="points">
              <mxPoint x="87" y="507.5" />
              <mxPoint x="97" y="530.5" />
            </Array>
          </mxGeometry>
        </mxCell>
        <mxCell id="RgK95_hisoFLhIq8c-8G-49" value="&lt;div&gt;Validazione&lt;/div&gt;&lt;div&gt;Form&lt;br&gt;&lt;/div&gt;" style="text;html=1;strokeColor=none;fillColor=none;align=center;verticalAlign=middle;whiteSpace=wrap;rounded=0;" vertex="1" parent="7baba1c4bc27f4b0-8">
          <mxGeometry x="90" y="497.5" width="60" height="30" as="geometry" />
        </mxCell>
        <mxCell id="RgK95_hisoFLhIq8c-8G-50" value="" style="html=1;points=[];perimeter=orthogonalPerimeter;rounded=0;shadow=0;comic=0;labelBackgroundColor=none;strokeWidth=1;fontFamily=Verdana;fontSize=12;align=center;" vertex="1" parent="7baba1c4bc27f4b0-8">
          <mxGeometry x="50" y="547.5" width="15" height="22.5" as="geometry" />
        </mxCell>
        <mxCell id="RgK95_hisoFLhIq8c-8G-51" value="" style="curved=1;endArrow=classic;html=1;rounded=0;fontSize=12;entryX=1;entryY=0.8;entryDx=0;entryDy=0;entryPerimeter=0;" edge="1" parent="7baba1c4bc27f4b0-8">
          <mxGeometry width="50" height="50" relative="1" as="geometry">
            <mxPoint x="68" y="548" as="sourcePoint" />
            <mxPoint x="68" y="565.5" as="targetPoint" />
            <Array as="points">
              <mxPoint x="87" y="547.5" />
              <mxPoint x="97" y="570.5" />
            </Array>
          </mxGeometry>
        </mxCell>
        <mxCell id="RgK95_hisoFLhIq8c-8G-52" value="&lt;div&gt;Validazione&lt;/div&gt;&lt;div&gt;Form&lt;br&gt;&lt;/div&gt;" style="text;html=1;strokeColor=none;fillColor=none;align=center;verticalAlign=middle;whiteSpace=wrap;rounded=0;" vertex="1" parent="7baba1c4bc27f4b0-8">
          <mxGeometry x="90" y="537.5" width="60" height="30" as="geometry" />
        </mxCell>
        <mxCell id="RgK95_hisoFLhIq8c-8G-53" value="" style="html=1;points=[];perimeter=orthogonalPerimeter;rounded=0;shadow=0;comic=0;labelBackgroundColor=none;strokeWidth=1;fontFamily=Verdana;fontSize=12;align=center;" vertex="1" parent="7baba1c4bc27f4b0-8">
          <mxGeometry x="50" y="597.5" width="15" height="22.5" as="geometry" />
        </mxCell>
        <mxCell id="RgK95_hisoFLhIq8c-8G-54" value="" style="curved=1;endArrow=classic;html=1;rounded=0;fontSize=12;entryX=1;entryY=0.8;entryDx=0;entryDy=0;entryPerimeter=0;" edge="1" parent="7baba1c4bc27f4b0-8">
          <mxGeometry width="50" height="50" relative="1" as="geometry">
            <mxPoint x="68" y="598" as="sourcePoint" />
            <mxPoint x="68" y="615.5" as="targetPoint" />
            <Array as="points">
              <mxPoint x="87" y="597.5" />
              <mxPoint x="97" y="620.5" />
            </Array>
          </mxGeometry>
        </mxCell>
        <mxCell id="RgK95_hisoFLhIq8c-8G-55" value="&lt;div&gt;Validazione&lt;/div&gt;&lt;div&gt;Form&lt;br&gt;&lt;/div&gt;" style="text;html=1;strokeColor=none;fillColor=none;align=center;verticalAlign=middle;whiteSpace=wrap;rounded=0;" vertex="1" parent="7baba1c4bc27f4b0-8">
          <mxGeometry x="90" y="587.5" width="60" height="30" as="geometry" />
        </mxCell>
        <mxCell id="RgK95_hisoFLhIq8c-8G-56" value="" style="html=1;points=[];perimeter=orthogonalPerimeter;rounded=0;shadow=0;comic=0;labelBackgroundColor=none;strokeWidth=1;fontFamily=Verdana;fontSize=12;align=center;" vertex="1" parent="7baba1c4bc27f4b0-8">
          <mxGeometry x="50" y="637.5" width="15" height="22.5" as="geometry" />
        </mxCell>
        <mxCell id="RgK95_hisoFLhIq8c-8G-57" value="" style="curved=1;endArrow=classic;html=1;rounded=0;fontSize=12;entryX=1;entryY=0.8;entryDx=0;entryDy=0;entryPerimeter=0;" edge="1" parent="7baba1c4bc27f4b0-8">
          <mxGeometry width="50" height="50" relative="1" as="geometry">
            <mxPoint x="68" y="638" as="sourcePoint" />
            <mxPoint x="68" y="655.5" as="targetPoint" />
            <Array as="points">
              <mxPoint x="87" y="637.5" />
              <mxPoint x="97" y="660.5" />
            </Array>
          </mxGeometry>
        </mxCell>
        <mxCell id="RgK95_hisoFLhIq8c-8G-58" value="&lt;div&gt;Validazione&lt;/div&gt;&lt;div&gt;Form&lt;br&gt;&lt;/div&gt;" style="text;html=1;strokeColor=none;fillColor=none;align=center;verticalAlign=middle;whiteSpace=wrap;rounded=0;" vertex="1" parent="7baba1c4bc27f4b0-8">
          <mxGeometry x="90" y="627.5" width="60" height="30" as="geometry" />
        </mxCell>
        <mxCell id="RgK95_hisoFLhIq8c-8G-59" value="" style="html=1;points=[];perimeter=orthogonalPerimeter;rounded=0;shadow=0;comic=0;labelBackgroundColor=none;strokeWidth=1;fontFamily=Verdana;fontSize=12;align=center;" vertex="1" parent="7baba1c4bc27f4b0-8">
          <mxGeometry x="50" y="687" width="15" height="22.5" as="geometry" />
        </mxCell>
        <mxCell id="RgK95_hisoFLhIq8c-8G-60" value="" style="curved=1;endArrow=classic;html=1;rounded=0;fontSize=12;entryX=1;entryY=0.8;entryDx=0;entryDy=0;entryPerimeter=0;" edge="1" parent="7baba1c4bc27f4b0-8">
          <mxGeometry width="50" height="50" relative="1" as="geometry">
            <mxPoint x="68" y="687.5" as="sourcePoint" />
            <mxPoint x="68" y="705" as="targetPoint" />
            <Array as="points">
              <mxPoint x="87" y="687" />
              <mxPoint x="97" y="710" />
            </Array>
          </mxGeometry>
        </mxCell>
        <mxCell id="RgK95_hisoFLhIq8c-8G-61" value="&lt;div&gt;Validazione&lt;/div&gt;&lt;div&gt;Form&lt;br&gt;&lt;/div&gt;" style="text;html=1;strokeColor=none;fillColor=none;align=center;verticalAlign=middle;whiteSpace=wrap;rounded=0;" vertex="1" parent="7baba1c4bc27f4b0-8">
          <mxGeometry x="90" y="677" width="60" height="30" as="geometry" />
        </mxCell>
        <mxCell id="RgK95_hisoFLhIq8c-8G-62" value="" style="html=1;points=[];perimeter=orthogonalPerimeter;rounded=0;shadow=0;comic=0;labelBackgroundColor=none;strokeWidth=1;fontFamily=Verdana;fontSize=12;align=center;" vertex="1" parent="7baba1c4bc27f4b0-8">
          <mxGeometry x="50" y="727.5" width="15" height="22.5" as="geometry" />
        </mxCell>
        <mxCell id="RgK95_hisoFLhIq8c-8G-63" value="" style="curved=1;endArrow=classic;html=1;rounded=0;fontSize=12;entryX=1;entryY=0.8;entryDx=0;entryDy=0;entryPerimeter=0;" edge="1" parent="7baba1c4bc27f4b0-8">
          <mxGeometry width="50" height="50" relative="1" as="geometry">
            <mxPoint x="68" y="728" as="sourcePoint" />
            <mxPoint x="68" y="745.5" as="targetPoint" />
            <Array as="points">
              <mxPoint x="87" y="727.5" />
              <mxPoint x="97" y="750.5" />
            </Array>
          </mxGeometry>
        </mxCell>
        <mxCell id="RgK95_hisoFLhIq8c-8G-64" value="&lt;div&gt;Validazione&lt;/div&gt;&lt;div&gt;Form&lt;br&gt;&lt;/div&gt;" style="text;html=1;strokeColor=none;fillColor=none;align=center;verticalAlign=middle;whiteSpace=wrap;rounded=0;" vertex="1" parent="7baba1c4bc27f4b0-8">
          <mxGeometry x="90" y="717.5" width="60" height="30" as="geometry" />
        </mxCell>
        <mxCell id="RgK95_hisoFLhIq8c-8G-65" value="" style="html=1;points=[];perimeter=orthogonalPerimeter;rounded=0;shadow=0;comic=0;labelBackgroundColor=none;strokeWidth=1;fontFamily=Verdana;fontSize=12;align=center;" vertex="1" parent="7baba1c4bc27f4b0-8">
          <mxGeometry x="50" y="774.5" width="15" height="22.5" as="geometry" />
        </mxCell>
        <mxCell id="RgK95_hisoFLhIq8c-8G-66" value="" style="curved=1;endArrow=classic;html=1;rounded=0;fontSize=12;entryX=1;entryY=0.8;entryDx=0;entryDy=0;entryPerimeter=0;" edge="1" parent="7baba1c4bc27f4b0-8">
          <mxGeometry width="50" height="50" relative="1" as="geometry">
            <mxPoint x="68" y="775" as="sourcePoint" />
            <mxPoint x="68" y="792.5" as="targetPoint" />
            <Array as="points">
              <mxPoint x="87" y="774.5" />
              <mxPoint x="97" y="797.5" />
            </Array>
          </mxGeometry>
        </mxCell>
        <mxCell id="RgK95_hisoFLhIq8c-8G-67" value="&lt;div&gt;Validazione&lt;/div&gt;&lt;div&gt;Form&lt;br&gt;&lt;/div&gt;" style="text;html=1;strokeColor=none;fillColor=none;align=center;verticalAlign=middle;whiteSpace=wrap;rounded=0;" vertex="1" parent="7baba1c4bc27f4b0-8">
          <mxGeometry x="90" y="764.5" width="60" height="30" as="geometry" />
        </mxCell>
        <mxCell id="RgK95_hisoFLhIq8c-8G-68" value="" style="html=1;points=[];perimeter=orthogonalPerimeter;rounded=0;shadow=0;comic=0;labelBackgroundColor=none;strokeWidth=1;fontFamily=Verdana;fontSize=12;align=center;" vertex="1" parent="7baba1c4bc27f4b0-8">
          <mxGeometry x="50" y="827" width="15" height="22.5" as="geometry" />
        </mxCell>
        <mxCell id="RgK95_hisoFLhIq8c-8G-69" value="" style="curved=1;endArrow=classic;html=1;rounded=0;fontSize=12;entryX=1;entryY=0.8;entryDx=0;entryDy=0;entryPerimeter=0;" edge="1" parent="7baba1c4bc27f4b0-8">
          <mxGeometry width="50" height="50" relative="1" as="geometry">
            <mxPoint x="68" y="827.5" as="sourcePoint" />
            <mxPoint x="68" y="845" as="targetPoint" />
            <Array as="points">
              <mxPoint x="87" y="827" />
              <mxPoint x="97" y="850" />
            </Array>
          </mxGeometry>
        </mxCell>
        <mxCell id="RgK95_hisoFLhIq8c-8G-70" value="&lt;div&gt;Validazione&lt;/div&gt;&lt;div&gt;Form&lt;br&gt;&lt;/div&gt;" style="text;html=1;strokeColor=none;fillColor=none;align=center;verticalAlign=middle;whiteSpace=wrap;rounded=0;" vertex="1" parent="7baba1c4bc27f4b0-8">
          <mxGeometry x="90" y="817" width="60" height="30" as="geometry" />
        </mxCell>
        <mxCell id="RgK95_hisoFLhIq8c-8G-86" value="" style="html=1;points=[];perimeter=orthogonalPerimeter;rounded=0;shadow=0;comic=0;labelBackgroundColor=none;strokeWidth=1;fontFamily=Verdana;fontSize=12;align=center;" vertex="1" parent="7baba1c4bc27f4b0-8">
          <mxGeometry x="50" y="877.5" width="15" height="22.5" as="geometry" />
        </mxCell>
        <mxCell id="RgK95_hisoFLhIq8c-8G-87" value="" style="curved=1;endArrow=classic;html=1;rounded=0;fontSize=12;entryX=1;entryY=0.8;entryDx=0;entryDy=0;entryPerimeter=0;" edge="1" parent="7baba1c4bc27f4b0-8">
          <mxGeometry width="50" height="50" relative="1" as="geometry">
            <mxPoint x="68" y="878" as="sourcePoint" />
            <mxPoint x="68" y="895.5" as="targetPoint" />
            <Array as="points">
              <mxPoint x="87" y="877.5" />
              <mxPoint x="97" y="900.5" />
            </Array>
          </mxGeometry>
        </mxCell>
        <mxCell id="RgK95_hisoFLhIq8c-8G-88" value="&lt;div&gt;Validazione&lt;/div&gt;&lt;div&gt;Form&lt;br&gt;&lt;/div&gt;" style="text;html=1;strokeColor=none;fillColor=none;align=center;verticalAlign=middle;whiteSpace=wrap;rounded=0;" vertex="1" parent="7baba1c4bc27f4b0-8">
          <mxGeometry x="90" y="867.5" width="60" height="30" as="geometry" />
        </mxCell>
        <mxCell id="RgK95_hisoFLhIq8c-8G-89" value="" style="html=1;points=[];perimeter=orthogonalPerimeter;rounded=0;shadow=0;comic=0;labelBackgroundColor=none;strokeWidth=1;fontFamily=Verdana;fontSize=12;align=center;" vertex="1" parent="7baba1c4bc27f4b0-8">
          <mxGeometry x="50" y="927.5" width="15" height="22.5" as="geometry" />
        </mxCell>
        <mxCell id="RgK95_hisoFLhIq8c-8G-90" value="" style="curved=1;endArrow=classic;html=1;rounded=0;fontSize=12;entryX=1;entryY=0.8;entryDx=0;entryDy=0;entryPerimeter=0;" edge="1" parent="7baba1c4bc27f4b0-8">
          <mxGeometry width="50" height="50" relative="1" as="geometry">
            <mxPoint x="68" y="928" as="sourcePoint" />
            <mxPoint x="68" y="945.5" as="targetPoint" />
            <Array as="points">
              <mxPoint x="87" y="927.5" />
              <mxPoint x="97" y="950.5" />
            </Array>
          </mxGeometry>
        </mxCell>
        <mxCell id="RgK95_hisoFLhIq8c-8G-91" value="&lt;div&gt;Validazione&lt;/div&gt;&lt;div&gt;Form&lt;br&gt;&lt;/div&gt;" style="text;html=1;strokeColor=none;fillColor=none;align=center;verticalAlign=middle;whiteSpace=wrap;rounded=0;" vertex="1" parent="7baba1c4bc27f4b0-8">
          <mxGeometry x="90" y="917.5" width="60" height="30" as="geometry" />
        </mxCell>
        <mxCell id="RgK95_hisoFLhIq8c-8G-92" value="" style="html=1;points=[];perimeter=orthogonalPerimeter;rounded=0;shadow=0;comic=0;labelBackgroundColor=none;strokeWidth=1;fontFamily=Verdana;fontSize=12;align=center;" vertex="1" parent="7baba1c4bc27f4b0-8">
          <mxGeometry x="50" y="967.5" width="15" height="22.5" as="geometry" />
        </mxCell>
        <mxCell id="RgK95_hisoFLhIq8c-8G-93" value="" style="curved=1;endArrow=classic;html=1;rounded=0;fontSize=12;entryX=1;entryY=0.8;entryDx=0;entryDy=0;entryPerimeter=0;" edge="1" parent="7baba1c4bc27f4b0-8">
          <mxGeometry width="50" height="50" relative="1" as="geometry">
            <mxPoint x="68" y="968" as="sourcePoint" />
            <mxPoint x="68" y="985.5" as="targetPoint" />
            <Array as="points">
              <mxPoint x="87" y="967.5" />
              <mxPoint x="97" y="990.5" />
            </Array>
          </mxGeometry>
        </mxCell>
        <mxCell id="RgK95_hisoFLhIq8c-8G-94" value="&lt;div&gt;Validazione&lt;/div&gt;&lt;div&gt;Form&lt;br&gt;&lt;/div&gt;" style="text;html=1;strokeColor=none;fillColor=none;align=center;verticalAlign=middle;whiteSpace=wrap;rounded=0;" vertex="1" parent="7baba1c4bc27f4b0-8">
          <mxGeometry x="90" y="957.5" width="60" height="30" as="geometry" />
        </mxCell>
        <mxCell id="RgK95_hisoFLhIq8c-8G-95" value="" style="html=1;points=[];perimeter=orthogonalPerimeter;rounded=0;shadow=0;comic=0;labelBackgroundColor=none;strokeWidth=1;fontFamily=Verdana;fontSize=12;align=center;" vertex="1" parent="7baba1c4bc27f4b0-8">
          <mxGeometry x="50" y="1007.5" width="15" height="22.5" as="geometry" />
        </mxCell>
        <mxCell id="RgK95_hisoFLhIq8c-8G-96" value="" style="curved=1;endArrow=classic;html=1;rounded=0;fontSize=12;entryX=1;entryY=0.8;entryDx=0;entryDy=0;entryPerimeter=0;" edge="1" parent="7baba1c4bc27f4b0-8">
          <mxGeometry width="50" height="50" relative="1" as="geometry">
            <mxPoint x="68" y="1008" as="sourcePoint" />
            <mxPoint x="68" y="1025.5" as="targetPoint" />
            <Array as="points">
              <mxPoint x="87" y="1007.5" />
              <mxPoint x="97" y="1030.5" />
            </Array>
          </mxGeometry>
        </mxCell>
        <mxCell id="RgK95_hisoFLhIq8c-8G-97" value="&lt;div&gt;Validazione&lt;/div&gt;&lt;div&gt;Form&lt;br&gt;&lt;/div&gt;" style="text;html=1;strokeColor=none;fillColor=none;align=center;verticalAlign=middle;whiteSpace=wrap;rounded=0;" vertex="1" parent="7baba1c4bc27f4b0-8">
          <mxGeometry x="90" y="997.5" width="60" height="30" as="geometry" />
        </mxCell>
        <mxCell id="RgK95_hisoFLhIq8c-8G-98" value="" style="html=1;points=[];perimeter=orthogonalPerimeter;rounded=0;shadow=0;comic=0;labelBackgroundColor=none;strokeWidth=1;fontFamily=Verdana;fontSize=12;align=center;" vertex="1" parent="7baba1c4bc27f4b0-8">
          <mxGeometry x="50" y="1047.5" width="15" height="22.5" as="geometry" />
        </mxCell>
        <mxCell id="RgK95_hisoFLhIq8c-8G-99" value="" style="curved=1;endArrow=classic;html=1;rounded=0;fontSize=12;entryX=1;entryY=0.8;entryDx=0;entryDy=0;entryPerimeter=0;" edge="1" parent="7baba1c4bc27f4b0-8">
          <mxGeometry width="50" height="50" relative="1" as="geometry">
            <mxPoint x="68" y="1048" as="sourcePoint" />
            <mxPoint x="68" y="1065.5" as="targetPoint" />
            <Array as="points">
              <mxPoint x="87" y="1047.5" />
              <mxPoint x="97" y="1070.5" />
            </Array>
          </mxGeometry>
        </mxCell>
        <mxCell id="RgK95_hisoFLhIq8c-8G-100" value="&lt;div&gt;Validazione&lt;/div&gt;&lt;div&gt;Form&lt;br&gt;&lt;/div&gt;" style="text;html=1;strokeColor=none;fillColor=none;align=center;verticalAlign=middle;whiteSpace=wrap;rounded=0;" vertex="1" parent="7baba1c4bc27f4b0-8">
          <mxGeometry x="90" y="1037.5" width="60" height="30" as="geometry" />
        </mxCell>
        <mxCell id="RgK95_hisoFLhIq8c-8G-101" value="" style="html=1;points=[];perimeter=orthogonalPerimeter;rounded=0;shadow=0;comic=0;labelBackgroundColor=none;strokeWidth=1;fontFamily=Verdana;fontSize=12;align=center;" vertex="1" parent="7baba1c4bc27f4b0-8">
          <mxGeometry x="50" y="1087.5" width="15" height="22.5" as="geometry" />
        </mxCell>
        <mxCell id="RgK95_hisoFLhIq8c-8G-102" value="" style="curved=1;endArrow=classic;html=1;rounded=0;fontSize=12;entryX=1;entryY=0.8;entryDx=0;entryDy=0;entryPerimeter=0;" edge="1" parent="7baba1c4bc27f4b0-8">
          <mxGeometry width="50" height="50" relative="1" as="geometry">
            <mxPoint x="68" y="1088" as="sourcePoint" />
            <mxPoint x="68" y="1105.5" as="targetPoint" />
            <Array as="points">
              <mxPoint x="87" y="1087.5" />
              <mxPoint x="97" y="1110.5" />
            </Array>
          </mxGeometry>
        </mxCell>
        <mxCell id="RgK95_hisoFLhIq8c-8G-103" value="&lt;div&gt;Validazione&lt;/div&gt;&lt;div&gt;Form&lt;br&gt;&lt;/div&gt;" style="text;html=1;strokeColor=none;fillColor=none;align=center;verticalAlign=middle;whiteSpace=wrap;rounded=0;" vertex="1" parent="7baba1c4bc27f4b0-8">
          <mxGeometry x="90" y="1077.5" width="60" height="30" as="geometry" />
        </mxCell>
        <mxCell id="RgK95_hisoFLhIq8c-8G-104" value="" style="html=1;points=[];perimeter=orthogonalPerimeter;rounded=0;shadow=0;comic=0;labelBackgroundColor=none;strokeWidth=1;fontFamily=Verdana;fontSize=12;align=center;" vertex="1" parent="7baba1c4bc27f4b0-8">
          <mxGeometry x="50" y="1127.5" width="15" height="22.5" as="geometry" />
        </mxCell>
        <mxCell id="RgK95_hisoFLhIq8c-8G-105" value="" style="curved=1;endArrow=classic;html=1;rounded=0;fontSize=12;entryX=1;entryY=0.8;entryDx=0;entryDy=0;entryPerimeter=0;" edge="1" parent="7baba1c4bc27f4b0-8">
          <mxGeometry width="50" height="50" relative="1" as="geometry">
            <mxPoint x="68" y="1128" as="sourcePoint" />
            <mxPoint x="68" y="1145.5" as="targetPoint" />
            <Array as="points">
              <mxPoint x="87" y="1127.5" />
              <mxPoint x="97" y="1150.5" />
            </Array>
          </mxGeometry>
        </mxCell>
        <mxCell id="RgK95_hisoFLhIq8c-8G-106" value="&lt;div&gt;Validazione&lt;/div&gt;&lt;div&gt;Form&lt;br&gt;&lt;/div&gt;" style="text;html=1;strokeColor=none;fillColor=none;align=center;verticalAlign=middle;whiteSpace=wrap;rounded=0;" vertex="1" parent="7baba1c4bc27f4b0-8">
          <mxGeometry x="90" y="1117.5" width="60" height="30" as="geometry" />
        </mxCell>
        <mxCell id="RgK95_hisoFLhIq8c-8G-107" value="" style="html=1;points=[];perimeter=orthogonalPerimeter;rounded=0;shadow=0;comic=0;labelBackgroundColor=none;strokeWidth=1;fontFamily=Verdana;fontSize=12;align=center;" vertex="1" parent="7baba1c4bc27f4b0-8">
          <mxGeometry x="50" y="1167.5" width="15" height="22.5" as="geometry" />
        </mxCell>
        <mxCell id="RgK95_hisoFLhIq8c-8G-108" value="" style="curved=1;endArrow=classic;html=1;rounded=0;fontSize=12;entryX=1;entryY=0.8;entryDx=0;entryDy=0;entryPerimeter=0;" edge="1" parent="7baba1c4bc27f4b0-8">
          <mxGeometry width="50" height="50" relative="1" as="geometry">
            <mxPoint x="68" y="1168" as="sourcePoint" />
            <mxPoint x="68" y="1185.5" as="targetPoint" />
            <Array as="points">
              <mxPoint x="87" y="1167.5" />
              <mxPoint x="97" y="1190.5" />
            </Array>
          </mxGeometry>
        </mxCell>
        <mxCell id="RgK95_hisoFLhIq8c-8G-109" value="&lt;div&gt;Validazione&lt;/div&gt;&lt;div&gt;Form&lt;br&gt;&lt;/div&gt;" style="text;html=1;strokeColor=none;fillColor=none;align=center;verticalAlign=middle;whiteSpace=wrap;rounded=0;" vertex="1" parent="7baba1c4bc27f4b0-8">
          <mxGeometry x="90" y="1157.5" width="60" height="30" as="geometry" />
        </mxCell>
        <mxCell id="RgK95_hisoFLhIq8c-8G-113" value="newStatoOpera" style="html=1;verticalAlign=bottom;endArrow=block;labelBackgroundColor=none;fontFamily=Verdana;fontSize=12;edgeStyle=elbowEdgeStyle;elbow=vertical;" edge="1" parent="7baba1c4bc27f4b0-8">
          <mxGeometry relative="1" as="geometry">
            <mxPoint x="61" y="1237.5" as="sourcePoint" />
            <mxPoint x="360" y="1237.5" as="targetPoint" />
          </mxGeometry>
        </mxCell>
        <mxCell id="RgK95_hisoFLhIq8c-8G-114" value="newClassificazioneCollegamentoUsoStradale" style="html=1;verticalAlign=bottom;endArrow=block;labelBackgroundColor=none;fontFamily=Verdana;fontSize=12;edgeStyle=elbowEdgeStyle;elbow=vertical;" edge="1" parent="7baba1c4bc27f4b0-8">
          <mxGeometry relative="1" as="geometry">
            <mxPoint x="61" y="1257.5" as="sourcePoint" />
            <mxPoint x="360" y="1257.5" as="targetPoint" />
          </mxGeometry>
        </mxCell>
        <mxCell id="RgK95_hisoFLhIq8c-8G-116" value="newDatiGeomorfologici" style="html=1;verticalAlign=bottom;endArrow=block;labelBackgroundColor=none;fontFamily=Verdana;fontSize=12;edgeStyle=elbowEdgeStyle;elbow=horizontal;" edge="1" parent="7baba1c4bc27f4b0-8">
          <mxGeometry relative="1" as="geometry">
            <mxPoint x="61" y="1277.5" as="sourcePoint" />
            <mxPoint x="360" y="1277.5" as="targetPoint" />
          </mxGeometry>
        </mxCell>
        <mxCell id="RgK95_hisoFLhIq8c-8G-117" value="newCaratteristicheGeometriche" style="html=1;verticalAlign=bottom;endArrow=block;labelBackgroundColor=none;fontFamily=Verdana;fontSize=12;edgeStyle=elbowEdgeStyle;elbow=horizontal;" edge="1" parent="7baba1c4bc27f4b0-8">
          <mxGeometry relative="1" as="geometry">
            <mxPoint x="61" y="1301.5" as="sourcePoint" />
            <mxPoint x="360" y="1301.5" as="targetPoint" />
          </mxGeometry>
        </mxCell>
        <mxCell id="RgK95_hisoFLhIq8c-8G-118" value="newInterventoStrutturale" style="html=1;verticalAlign=bottom;endArrow=block;labelBackgroundColor=none;fontFamily=Verdana;fontSize=12;edgeStyle=elbowEdgeStyle;elbow=vertical;" edge="1" parent="7baba1c4bc27f4b0-8">
          <mxGeometry relative="1" as="geometry">
            <mxPoint x="62" y="1327.5" as="sourcePoint" />
            <mxPoint x="361" y="1327.5" as="targetPoint" />
          </mxGeometry>
        </mxCell>
        <mxCell id="RgK95_hisoFLhIq8c-8G-122" value="newAttivitÃ Monitoraggio" style="html=1;verticalAlign=bottom;endArrow=block;labelBackgroundColor=none;fontFamily=Verdana;fontSize=12;edgeStyle=elbowEdgeStyle;elbow=vertical;" edge="1" parent="7baba1c4bc27f4b0-8">
          <mxGeometry relative="1" as="geometry">
            <mxPoint x="61" y="1403.5" as="sourcePoint" />
            <mxPoint x="360" y="1403.5" as="targetPoint" />
          </mxGeometry>
        </mxCell>
        <mxCell id="RgK95_hisoFLhIq8c-8G-120" value="newIspezionePregressa" style="html=1;verticalAlign=bottom;endArrow=block;labelBackgroundColor=none;fontFamily=Verdana;fontSize=12;edgeStyle=elbowEdgeStyle;elbow=vertical;" edge="1" parent="7baba1c4bc27f4b0-8">
          <mxGeometry relative="1" as="geometry">
            <mxPoint x="61" y="1377.5" as="sourcePoint" />
            <mxPoint x="360" y="1377.5" as="targetPoint" />
          </mxGeometry>
        </mxCell>
        <mxCell id="RgK95_hisoFLhIq8c-8G-119" value="newIntervenoiManutenzione" style="html=1;verticalAlign=bottom;endArrow=block;labelBackgroundColor=none;fontFamily=Verdana;fontSize=12;edgeStyle=elbowEdgeStyle;elbow=vertical;" edge="1" parent="7baba1c4bc27f4b0-8">
          <mxGeometry relative="1" as="geometry">
            <mxPoint x="61" y="1352.5" as="sourcePoint" />
            <mxPoint x="360" y="1352.5" as="targetPoint" />
          </mxGeometry>
        </mxCell>
        <mxCell id="RgK95_hisoFLhIq8c-8G-124" value="newDocumentoProgettuale" style="html=1;verticalAlign=bottom;endArrow=block;labelBackgroundColor=none;fontFamily=Verdana;fontSize=12;edgeStyle=elbowEdgeStyle;elbow=vertical;" edge="1" parent="7baba1c4bc27f4b0-8">
          <mxGeometry relative="1" as="geometry">
            <mxPoint x="61" y="1479.5" as="sourcePoint" />
            <mxPoint x="360" y="1479.5" as="targetPoint" />
          </mxGeometry>
        </mxCell>
        <mxCell id="RgK95_hisoFLhIq8c-8G-123" value="newClasseConseguenza" style="html=1;verticalAlign=bottom;endArrow=block;labelBackgroundColor=none;fontFamily=Verdana;fontSize=12;edgeStyle=elbowEdgeStyle;elbow=vertical;" edge="1" parent="7baba1c4bc27f4b0-8">
          <mxGeometry relative="1" as="geometry">
            <mxPoint x="61" y="1454.5" as="sourcePoint" />
            <mxPoint x="360" y="1454.5" as="targetPoint" />
          </mxGeometry>
        </mxCell>
        <mxCell id="RgK95_hisoFLhIq8c-8G-125" value="newPonte" style="html=1;verticalAlign=bottom;endArrow=block;labelBackgroundColor=none;fontFamily=Verdana;fontSize=12;edgeStyle=elbowEdgeStyle;elbow=vertical;" edge="1" parent="7baba1c4bc27f4b0-8">
          <mxGeometry relative="1" as="geometry">
            <mxPoint x="63" y="1505" as="sourcePoint" />
            <mxPoint x="362" y="1505" as="targetPoint" />
          </mxGeometry>
        </mxCell>
        <mxCell id="RgK95_hisoFLhIq8c-8G-179" value="" style="html=1;points=[];perimeter=orthogonalPerimeter;rounded=0;shadow=0;comic=0;labelBackgroundColor=none;strokeWidth=1;fontFamily=Verdana;fontSize=12;align=center;" vertex="1" parent="7baba1c4bc27f4b0-8">
          <mxGeometry x="66.25" y="2837.5" width="17.5" height="42.5" as="geometry" />
        </mxCell>
        <mxCell id="BTWY4qvMuuYK0QyZnwEh-2" value="&lt;font style=&quot;font-size: 12px&quot;&gt;Utente&lt;/font&gt;" style="shape=umlActor;verticalLabelPosition=bottom;verticalAlign=top;html=1;outlineConnect=0;fontSize=24;" parent="1" vertex="1">
          <mxGeometry x="70" y="30" width="30" height="60" as="geometry" />
        </mxCell>
        <mxCell id="BTWY4qvMuuYK0QyZnwEh-9" value="setInformazioniBase" style="html=1;verticalAlign=bottom;endArrow=block;entryX=0;entryY=0;labelBackgroundColor=none;fontFamily=Verdana;fontSize=12;edgeStyle=elbowEdgeStyle;elbow=vertical;" parent="1" edge="1">
          <mxGeometry relative="1" as="geometry">
            <mxPoint x="90" y="153" as="sourcePoint" />
            <mxPoint x="305" y="152.9999999999999" as="targetPoint" />
          </mxGeometry>
        </mxCell>
        <mxCell id="BTWY4qvMuuYK0QyZnwEh-4" value="" style="endArrow=none;dashed=1;html=1;rounded=0;fontSize=24;entryX=0.5;entryY=0.5;entryDx=0;entryDy=0;entryPerimeter=0;" parent="1" target="BTWY4qvMuuYK0QyZnwEh-2" edge="1">
          <mxGeometry width="50" height="50" relative="1" as="geometry">
            <mxPoint x="85" y="1400" as="sourcePoint" />
            <mxPoint x="84" y="132.5" as="targetPoint" />
          </mxGeometry>
        </mxCell>
        <mxCell id="RgK95_hisoFLhIq8c-8G-1" value="setLocalizzazione" style="html=1;verticalAlign=bottom;endArrow=block;entryX=0;entryY=0;labelBackgroundColor=none;fontFamily=Verdana;fontSize=12;edgeStyle=elbowEdgeStyle;elbow=vertical;" edge="1" parent="1">
          <mxGeometry relative="1" as="geometry">
            <mxPoint x="90" y="198" as="sourcePoint" />
            <mxPoint x="305" y="197.9999999999999" as="targetPoint" />
          </mxGeometry>
        </mxCell>
        <mxCell id="RgK95_hisoFLhIq8c-8G-2" value="setInformazioniGenerali" style="html=1;verticalAlign=bottom;endArrow=block;entryX=0;entryY=0;labelBackgroundColor=none;fontFamily=Verdana;fontSize=12;edgeStyle=elbowEdgeStyle;elbow=vertical;" edge="1" parent="1">
          <mxGeometry relative="1" as="geometry">
            <mxPoint x="90" y="247" as="sourcePoint" />
            <mxPoint x="305" y="246.9999999999999" as="targetPoint" />
          </mxGeometry>
        </mxCell>
        <mxCell id="RgK95_hisoFLhIq8c-8G-3" value="setDatiProgetto" style="html=1;verticalAlign=bottom;endArrow=block;entryX=0;entryY=0;labelBackgroundColor=none;fontFamily=Verdana;fontSize=12;edgeStyle=elbowEdgeStyle;elbow=vertical;" edge="1" parent="1">
          <mxGeometry relative="1" as="geometry">
            <mxPoint x="90" y="292" as="sourcePoint" />
            <mxPoint x="302.5" y="291.9999999999999" as="targetPoint" />
          </mxGeometry>
        </mxCell>
        <mxCell id="RgK95_hisoFLhIq8c-8G-4" value="setTutela" style="html=1;verticalAlign=bottom;endArrow=block;entryX=0;entryY=0;labelBackgroundColor=none;fontFamily=Verdana;fontSize=12;edgeStyle=elbowEdgeStyle;elbow=vertical;" edge="1" parent="1">
          <mxGeometry relative="1" as="geometry">
            <mxPoint x="90" y="336" as="sourcePoint" />
            <mxPoint x="302.5" y="335.9999999999999" as="targetPoint" />
          </mxGeometry>
        </mxCell>
        <mxCell id="RgK95_hisoFLhIq8c-8G-5" value="setStatoOpera" style="html=1;verticalAlign=bottom;endArrow=block;entryX=0;entryY=0;labelBackgroundColor=none;fontFamily=Verdana;fontSize=12;edgeStyle=elbowEdgeStyle;elbow=vertical;" edge="1" parent="1">
          <mxGeometry relative="1" as="geometry">
            <mxPoint x="90" y="379" as="sourcePoint" />
            <mxPoint x="302.5" y="378.9999999999999" as="targetPoint" />
          </mxGeometry>
        </mxCell>
        <mxCell id="RgK95_hisoFLhIq8c-8G-6" value="&lt;div&gt;setClassificazione&lt;/div&gt;&lt;div&gt;CollegamentoUsoStradale&lt;/div&gt;" style="html=1;verticalAlign=bottom;endArrow=block;entryX=0;entryY=0;labelBackgroundColor=none;fontFamily=Verdana;fontSize=12;edgeStyle=elbowEdgeStyle;elbow=vertical;" edge="1" parent="1">
          <mxGeometry relative="1" as="geometry">
            <mxPoint x="90" y="436" as="sourcePoint" />
            <mxPoint x="302.5" y="435.9999999999999" as="targetPoint" />
          </mxGeometry>
        </mxCell>
        <mxCell id="RgK95_hisoFLhIq8c-8G-8" value="&lt;div&gt;setDatiMorfologici&lt;/div&gt;" style="html=1;verticalAlign=bottom;endArrow=block;entryX=0;entryY=0;labelBackgroundColor=none;fontFamily=Verdana;fontSize=12;edgeStyle=elbowEdgeStyle;elbow=vertical;" edge="1" parent="1">
          <mxGeometry relative="1" as="geometry">
            <mxPoint x="90" y="480" as="sourcePoint" />
            <mxPoint x="302.5" y="479.9999999999999" as="targetPoint" />
          </mxGeometry>
        </mxCell>
        <mxCell id="RgK95_hisoFLhIq8c-8G-9" value="&lt;div&gt;setCaratteristicheGeometriche&lt;/div&gt;" style="html=1;verticalAlign=bottom;endArrow=block;entryX=0;entryY=0;labelBackgroundColor=none;fontFamily=Verdana;fontSize=12;edgeStyle=elbowEdgeStyle;elbow=vertical;" edge="1" parent="1">
          <mxGeometry relative="1" as="geometry">
            <mxPoint x="90" y="520" as="sourcePoint" />
            <mxPoint x="302.5" y="519.9999999999999" as="targetPoint" />
          </mxGeometry>
        </mxCell>
        <mxCell id="RgK95_hisoFLhIq8c-8G-10" value="&lt;div&gt;setTipologiaStrutturale&lt;/div&gt;" style="html=1;verticalAlign=bottom;endArrow=block;entryX=0;entryY=0;labelBackgroundColor=none;fontFamily=Verdana;fontSize=12;edgeStyle=elbowEdgeStyle;elbow=vertical;" edge="1" parent="1">
          <mxGeometry relative="1" as="geometry">
            <mxPoint x="90" y="562" as="sourcePoint" />
            <mxPoint x="302.5" y="561.9999999999999" as="targetPoint" />
          </mxGeometry>
        </mxCell>
        <mxCell id="RgK95_hisoFLhIq8c-8G-11" value="&lt;div&gt;setInterventiStrutturali&lt;/div&gt;" style="html=1;verticalAlign=bottom;endArrow=block;entryX=0;entryY=0;labelBackgroundColor=none;fontFamily=Verdana;fontSize=12;edgeStyle=elbowEdgeStyle;elbow=vertical;" edge="1" parent="1">
          <mxGeometry relative="1" as="geometry">
            <mxPoint x="90" y="604" as="sourcePoint" />
            <mxPoint x="302.5" y="603.9999999999999" as="targetPoint" />
          </mxGeometry>
        </mxCell>
        <mxCell id="RgK95_hisoFLhIq8c-8G-12" value="&lt;div&gt;setInterventiManutenzione&lt;/div&gt;" style="html=1;verticalAlign=bottom;endArrow=block;entryX=0;entryY=0;labelBackgroundColor=none;fontFamily=Verdana;fontSize=12;edgeStyle=elbowEdgeStyle;elbow=vertical;" edge="1" parent="1">
          <mxGeometry relative="1" as="geometry">
            <mxPoint x="90" y="652" as="sourcePoint" />
            <mxPoint x="302.5" y="651.9999999999999" as="targetPoint" />
          </mxGeometry>
        </mxCell>
        <mxCell id="RgK95_hisoFLhIq8c-8G-13" value="&lt;div&gt;setIspezioniPregeresse&lt;/div&gt;" style="html=1;verticalAlign=bottom;endArrow=block;entryX=0;entryY=0;labelBackgroundColor=none;fontFamily=Verdana;fontSize=12;edgeStyle=elbowEdgeStyle;elbow=vertical;" edge="1" parent="1">
          <mxGeometry relative="1" as="geometry">
            <mxPoint x="90" y="697" as="sourcePoint" />
            <mxPoint x="302.5" y="696.9999999999999" as="targetPoint" />
          </mxGeometry>
        </mxCell>
        <mxCell id="RgK95_hisoFLhIq8c-8G-14" value="&lt;div&gt;setAttivitÃ Monitoraggio&lt;br&gt;&lt;/div&gt;" style="html=1;verticalAlign=bottom;endArrow=block;entryX=0;entryY=0;labelBackgroundColor=none;fontFamily=Verdana;fontSize=12;edgeStyle=elbowEdgeStyle;elbow=vertical;" edge="1" parent="1">
          <mxGeometry relative="1" as="geometry">
            <mxPoint x="90" y="741" as="sourcePoint" />
            <mxPoint x="302.5" y="740.9999999999999" as="targetPoint" />
          </mxGeometry>
        </mxCell>
        <mxCell id="RgK95_hisoFLhIq8c-8G-15" value="&lt;div&gt;setReteStradale&lt;/div&gt;" style="html=1;verticalAlign=bottom;endArrow=block;entryX=0;entryY=0;labelBackgroundColor=none;fontFamily=Verdana;fontSize=12;edgeStyle=elbowEdgeStyle;elbow=vertical;" edge="1" parent="1">
          <mxGeometry relative="1" as="geometry">
            <mxPoint x="90" y="784" as="sourcePoint" />
            <mxPoint x="302.5" y="783.9999999999999" as="targetPoint" />
          </mxGeometry>
        </mxCell>
        <mxCell id="RgK95_hisoFLhIq8c-8G-16" value="&lt;div&gt;setClasseConseguenza&lt;/div&gt;" style="html=1;verticalAlign=bottom;endArrow=block;entryX=0;entryY=0;labelBackgroundColor=none;fontFamily=Verdana;fontSize=12;edgeStyle=elbowEdgeStyle;elbow=vertical;" edge="1" parent="1">
          <mxGeometry relative="1" as="geometry">
            <mxPoint x="90" y="830" as="sourcePoint" />
            <mxPoint x="302.5" y="829.9999999999999" as="targetPoint" />
          </mxGeometry>
        </mxCell>
        <mxCell id="RgK95_hisoFLhIq8c-8G-17" value="&lt;div&gt;setDocumentiProgettuali&lt;/div&gt;" style="html=1;verticalAlign=bottom;endArrow=block;entryX=0;entryY=0;labelBackgroundColor=none;fontFamily=Verdana;fontSize=12;edgeStyle=elbowEdgeStyle;elbow=vertical;" edge="1" parent="1">
          <mxGeometry relative="1" as="geometry">
            <mxPoint x="90" y="882" as="sourcePoint" />
            <mxPoint x="302.5" y="881.9999999999999" as="targetPoint" />
          </mxGeometry>
        </mxCell>
        <mxCell id="RgK95_hisoFLhIq8c-8G-22" value="&lt;div&gt;Validazione&lt;/div&gt;&lt;div&gt;Form&lt;br&gt;&lt;/div&gt;" style="text;html=1;strokeColor=none;fillColor=none;align=center;verticalAlign=middle;whiteSpace=wrap;rounded=0;" vertex="1" parent="1">
          <mxGeometry x="350" y="150" width="60" height="30" as="geometry" />
        </mxCell>
        <mxCell id="RgK95_hisoFLhIq8c-8G-71" value="&lt;u&gt;Database&lt;/u&gt;" style="shape=umlLifeline;perimeter=lifelinePerimeter;whiteSpace=wrap;html=1;container=1;collapsible=0;recursiveResize=0;outlineConnect=0;rounded=1;shadow=0;comic=0;labelBackgroundColor=none;strokeWidth=1;fontFamily=Verdana;fontSize=12;align=center;" vertex="1" parent="1">
          <mxGeometry x="1079" y="52.5" width="100" height="2877.5" as="geometry" />
        </mxCell>
        <mxCell id="RgK95_hisoFLhIq8c-8G-72" value="" style="html=1;points=[];perimeter=orthogonalPerimeter;rounded=0;shadow=0;comic=0;labelBackgroundColor=none;strokeWidth=1;fontFamily=Verdana;fontSize=12;align=center;" vertex="1" parent="RgK95_hisoFLhIq8c-8G-71">
          <mxGeometry x="41.25" y="2350" width="17.5" height="480" as="geometry" />
        </mxCell>
        <mxCell id="RgK95_hisoFLhIq8c-8G-176" value="esitoOperazione" style="endArrow=open;endSize=12;dashed=1;html=1;rounded=0;" edge="1" parent="RgK95_hisoFLhIq8c-8G-71">
          <mxGeometry width="160" relative="1" as="geometry">
            <mxPoint x="35.75" y="2817.5" as="sourcePoint" />
            <mxPoint x="-114.25" y="2817.5" as="targetPoint" />
          </mxGeometry>
        </mxCell>
        <mxCell id="BTWY4qvMuuYK0QyZnwEh-21" value="&lt;u&gt;DAO&lt;/u&gt;" style="shape=umlLifeline;perimeter=lifelinePerimeter;whiteSpace=wrap;html=1;container=1;collapsible=0;recursiveResize=0;outlineConnect=0;rounded=1;shadow=0;comic=0;labelBackgroundColor=none;strokeWidth=1;fontFamily=Verdana;fontSize=12;align=center;" parent="1" vertex="1">
          <mxGeometry x="906" y="52.5" width="100" height="2887.5" as="geometry" />
        </mxCell>
        <mxCell id="BTWY4qvMuuYK0QyZnwEh-22" value="" style="html=1;points=[];perimeter=orthogonalPerimeter;rounded=0;shadow=0;comic=0;labelBackgroundColor=none;strokeWidth=1;fontFamily=Verdana;fontSize=12;align=center;" parent="BTWY4qvMuuYK0QyZnwEh-21" vertex="1">
          <mxGeometry x="44.25" y="1917.5" width="17.5" height="862.5" as="geometry" />
        </mxCell>
        <mxCell id="RgK95_hisoFLhIq8c-8G-162" value="insertLocalizzazione" style="html=1;verticalAlign=bottom;endArrow=block;labelBackgroundColor=none;fontFamily=Verdana;fontSize=12;edgeStyle=elbowEdgeStyle;elbow=horizontal;" edge="1" parent="BTWY4qvMuuYK0QyZnwEh-21">
          <mxGeometry x="-0.0057" relative="1" as="geometry">
            <mxPoint x="61.75" y="2367.55" as="sourcePoint" />
            <mxPoint x="211.75" y="2367.5" as="targetPoint" />
            <mxPoint as="offset" />
          </mxGeometry>
        </mxCell>
        <mxCell id="RgK95_hisoFLhIq8c-8G-163" value="insertStatoOpera" style="html=1;verticalAlign=bottom;endArrow=block;labelBackgroundColor=none;fontFamily=Verdana;fontSize=12;edgeStyle=elbowEdgeStyle;elbow=vertical;exitX=1.162;exitY=0.638;exitDx=0;exitDy=0;exitPerimeter=0;" edge="1" parent="BTWY4qvMuuYK0QyZnwEh-21">
          <mxGeometry relative="1" as="geometry">
            <mxPoint x="64.18000000000006" y="2395.42" as="sourcePoint" />
            <mxPoint x="214.25" y="2396.19" as="targetPoint" />
          </mxGeometry>
        </mxCell>
        <mxCell id="RgK95_hisoFLhIq8c-8G-164" value="&lt;div&gt;insert&lt;font style=&quot;font-size: 11px;&quot;&gt;Dati&lt;/font&gt;&lt;/div&gt;&lt;div&gt;&lt;font style=&quot;font-size: 11px;&quot;&gt;Geomorfologici&lt;/font&gt;&lt;/div&gt;" style="html=1;verticalAlign=bottom;endArrow=block;labelBackgroundColor=none;fontFamily=Verdana;fontSize=12;edgeStyle=elbowEdgeStyle;elbow=vertical;" edge="1" parent="BTWY4qvMuuYK0QyZnwEh-21">
          <mxGeometry x="-0.0057" relative="1" as="geometry">
            <mxPoint x="61.75" y="2452.5" as="sourcePoint" />
            <mxPoint x="214.25" y="2454.19" as="targetPoint" />
            <mxPoint as="offset" />
          </mxGeometry>
        </mxCell>
        <mxCell id="RgK95_hisoFLhIq8c-8G-165" value="insertClassificazione" style="html=1;verticalAlign=bottom;endArrow=block;labelBackgroundColor=none;fontFamily=Verdana;fontSize=12;edgeStyle=elbowEdgeStyle;elbow=vertical;" edge="1" parent="BTWY4qvMuuYK0QyZnwEh-21">
          <mxGeometry x="-0.0057" relative="1" as="geometry">
            <mxPoint x="61.75" y="2421.5" as="sourcePoint" />
            <mxPoint x="214.25" y="2421.19" as="targetPoint" />
            <mxPoint as="offset" />
          </mxGeometry>
        </mxCell>
        <mxCell id="RgK95_hisoFLhIq8c-8G-166" value="&lt;div&gt;insert&lt;font style=&quot;font-size: 11px;&quot;&gt;Carratterisriche&lt;/font&gt;&lt;/div&gt;&lt;div&gt;&lt;font style=&quot;font-size: 11px;&quot;&gt;Geometriche&lt;br&gt;&lt;/font&gt;&lt;/div&gt;" style="html=1;verticalAlign=bottom;endArrow=block;labelBackgroundColor=none;fontFamily=Verdana;fontSize=12;edgeStyle=elbowEdgeStyle;elbow=vertical;" edge="1" parent="BTWY4qvMuuYK0QyZnwEh-21">
          <mxGeometry x="-0.0057" relative="1" as="geometry">
            <mxPoint x="61.75" y="2483.5" as="sourcePoint" />
            <mxPoint x="204.25" y="2488.19" as="targetPoint" />
            <mxPoint as="offset" />
          </mxGeometry>
        </mxCell>
        <mxCell id="RgK95_hisoFLhIq8c-8G-167" value="&lt;div&gt;insert&lt;font style=&quot;font-size: 11px;&quot;&gt;Intervento&lt;/font&gt;&lt;/div&gt;&lt;div&gt;&lt;font style=&quot;font-size: 11px;&quot;&gt;Strutturale&lt;/font&gt;&lt;/div&gt;" style="html=1;verticalAlign=bottom;endArrow=block;labelBackgroundColor=none;fontFamily=Verdana;fontSize=12;edgeStyle=elbowEdgeStyle;elbow=vertical;" edge="1" parent="BTWY4qvMuuYK0QyZnwEh-21">
          <mxGeometry x="-0.0057" relative="1" as="geometry">
            <mxPoint x="61.75" y="2518.5" as="sourcePoint" />
            <mxPoint x="214.25" y="2518.19" as="targetPoint" />
            <mxPoint as="offset" />
          </mxGeometry>
        </mxCell>
        <mxCell id="RgK95_hisoFLhIq8c-8G-168" value="&lt;div&gt;insert&lt;font style=&quot;font-size: 11px;&quot;&gt;Intervento&lt;/font&gt;&lt;/div&gt;&lt;div&gt;&lt;font style=&quot;font-size: 11px;&quot;&gt;Manutenzione&lt;br&gt;&lt;/font&gt;&lt;/div&gt;" style="html=1;verticalAlign=bottom;endArrow=block;labelBackgroundColor=none;fontFamily=Verdana;fontSize=12;edgeStyle=elbowEdgeStyle;elbow=vertical;" edge="1" parent="BTWY4qvMuuYK0QyZnwEh-21">
          <mxGeometry x="-0.0057" relative="1" as="geometry">
            <mxPoint x="61.75" y="2556.5" as="sourcePoint" />
            <mxPoint x="214.25" y="2556.19" as="targetPoint" />
            <mxPoint as="offset" />
          </mxGeometry>
        </mxCell>
        <mxCell id="RgK95_hisoFLhIq8c-8G-169" value="&lt;div&gt;insert&lt;font style=&quot;font-size: 11px;&quot;&gt;Ispezione&lt;/font&gt;&lt;/div&gt;&lt;div&gt;&lt;font style=&quot;font-size: 11px;&quot;&gt;Pregressa&lt;br&gt;&lt;/font&gt;&lt;/div&gt;" style="html=1;verticalAlign=bottom;endArrow=block;labelBackgroundColor=none;fontFamily=Verdana;fontSize=12;edgeStyle=elbowEdgeStyle;elbow=vertical;" edge="1" parent="BTWY4qvMuuYK0QyZnwEh-21">
          <mxGeometry x="-0.0057" relative="1" as="geometry">
            <mxPoint x="61.75" y="2592.5" as="sourcePoint" />
            <mxPoint x="214.25" y="2592.19" as="targetPoint" />
            <mxPoint as="offset" />
          </mxGeometry>
        </mxCell>
        <mxCell id="RgK95_hisoFLhIq8c-8G-170" value="&lt;div&gt;insert&lt;font style=&quot;font-size: 11px;&quot;&gt;AttivitÃ &lt;/font&gt;&lt;/div&gt;&lt;div&gt;&lt;font style=&quot;font-size: 11px;&quot;&gt;Monitoraggio&lt;br&gt;&lt;/font&gt;&lt;/div&gt;" style="html=1;verticalAlign=bottom;endArrow=block;labelBackgroundColor=none;fontFamily=Verdana;fontSize=12;edgeStyle=elbowEdgeStyle;elbow=vertical;" edge="1" parent="BTWY4qvMuuYK0QyZnwEh-21">
          <mxGeometry x="-0.0057" relative="1" as="geometry">
            <mxPoint x="61.75" y="2628.5" as="sourcePoint" />
            <mxPoint x="214.25" y="2628.19" as="targetPoint" />
            <mxPoint as="offset" />
          </mxGeometry>
        </mxCell>
        <mxCell id="RgK95_hisoFLhIq8c-8G-171" value="&lt;div&gt;insert&lt;font style=&quot;font-size: 11px;&quot;&gt;ReteStradale&lt;/font&gt;&lt;/div&gt;" style="html=1;verticalAlign=bottom;endArrow=block;labelBackgroundColor=none;fontFamily=Verdana;fontSize=12;edgeStyle=elbowEdgeStyle;elbow=horizontal;entryX=-0.135;entryY=0.701;entryDx=0;entryDy=0;entryPerimeter=0;" edge="1" parent="BTWY4qvMuuYK0QyZnwEh-21">
          <mxGeometry x="-0.0057" relative="1" as="geometry">
            <mxPoint x="61.75" y="2653.5" as="sourcePoint" />
            <mxPoint x="212.13749999999982" y="2653.3625" as="targetPoint" />
            <mxPoint as="offset" />
          </mxGeometry>
        </mxCell>
        <mxCell id="RgK95_hisoFLhIq8c-8G-172" value="&lt;div&gt;insert&lt;font style=&quot;font-size: 11px;&quot;&gt;Classe&lt;/font&gt;&lt;/div&gt;&lt;div&gt;&lt;font style=&quot;font-size: 11px;&quot;&gt;Conseguenza&lt;/font&gt;&lt;/div&gt;" style="html=1;verticalAlign=bottom;endArrow=block;labelBackgroundColor=none;fontFamily=Verdana;fontSize=12;edgeStyle=elbowEdgeStyle;elbow=horizontal;entryX=-0.135;entryY=0.796;entryDx=0;entryDy=0;entryPerimeter=0;" edge="1" parent="BTWY4qvMuuYK0QyZnwEh-21">
          <mxGeometry x="-0.0057" relative="1" as="geometry">
            <mxPoint x="61.75" y="2695.5" as="sourcePoint" />
            <mxPoint x="212.13749999999982" y="2695.5000000000005" as="targetPoint" />
            <mxPoint as="offset" />
          </mxGeometry>
        </mxCell>
        <mxCell id="RgK95_hisoFLhIq8c-8G-173" value="&lt;div&gt;insert&lt;font style=&quot;font-size: 11px;&quot;&gt;Documento&lt;/font&gt;&lt;/div&gt;&lt;div&gt;&lt;font style=&quot;font-size: 11px;&quot;&gt;Progettuale&lt;br&gt;&lt;/font&gt;&lt;/div&gt;" style="html=1;verticalAlign=bottom;endArrow=block;labelBackgroundColor=none;fontFamily=Verdana;fontSize=12;edgeStyle=elbowEdgeStyle;elbow=vertical;" edge="1" parent="BTWY4qvMuuYK0QyZnwEh-21">
          <mxGeometry x="-0.0057" relative="1" as="geometry">
            <mxPoint x="61.75" y="2737.5" as="sourcePoint" />
            <mxPoint x="214.25" y="2737.19" as="targetPoint" />
            <mxPoint as="offset" />
          </mxGeometry>
        </mxCell>
        <mxCell id="RgK95_hisoFLhIq8c-8G-174" value="insertPonte" style="html=1;verticalAlign=bottom;endArrow=block;labelBackgroundColor=none;fontFamily=Verdana;fontSize=12;edgeStyle=elbowEdgeStyle;elbow=vertical;" edge="1" parent="BTWY4qvMuuYK0QyZnwEh-21">
          <mxGeometry x="-0.0057" relative="1" as="geometry">
            <mxPoint x="61.75" y="2765.5" as="sourcePoint" />
            <mxPoint x="214.25" y="2766.19" as="targetPoint" />
            <mxPoint as="offset" />
          </mxGeometry>
        </mxCell>
        <mxCell id="RgK95_hisoFLhIq8c-8G-175" value="" style="html=1;points=[];perimeter=orthogonalPerimeter;rounded=0;shadow=0;comic=0;labelBackgroundColor=none;strokeWidth=1;fontFamily=Verdana;fontSize=12;align=center;" vertex="1" parent="BTWY4qvMuuYK0QyZnwEh-21">
          <mxGeometry x="41.25" y="2797.5" width="17.5" height="60" as="geometry" />
        </mxCell>
        <mxCell id="RgK95_hisoFLhIq8c-8G-76" value="&lt;div&gt;setNumeroComponenti&lt;/div&gt;" style="html=1;verticalAlign=bottom;endArrow=block;entryX=0;entryY=0;labelBackgroundColor=none;fontFamily=Verdana;fontSize=12;edgeStyle=elbowEdgeStyle;elbow=vertical;" edge="1" parent="1">
          <mxGeometry relative="1" as="geometry">
            <mxPoint x="90" y="930" as="sourcePoint" />
            <mxPoint x="302.5" y="929.9999999999999" as="targetPoint" />
          </mxGeometry>
        </mxCell>
        <mxCell id="RgK95_hisoFLhIq8c-8G-77" value="&lt;div&gt;setTrave&lt;/div&gt;" style="html=1;verticalAlign=bottom;endArrow=block;entryX=0;entryY=0;labelBackgroundColor=none;fontFamily=Verdana;fontSize=12;edgeStyle=elbowEdgeStyle;elbow=vertical;" edge="1" parent="1">
          <mxGeometry relative="1" as="geometry">
            <mxPoint x="90" y="981" as="sourcePoint" />
            <mxPoint x="302.5" y="980.9999999999999" as="targetPoint" />
          </mxGeometry>
        </mxCell>
        <mxCell id="RgK95_hisoFLhIq8c-8G-78" value="&lt;div&gt;setGiunto&lt;/div&gt;" style="html=1;verticalAlign=bottom;endArrow=block;entryX=0;entryY=0;labelBackgroundColor=none;fontFamily=Verdana;fontSize=12;edgeStyle=elbowEdgeStyle;elbow=horizontal;" edge="1" parent="1">
          <mxGeometry relative="1" as="geometry">
            <mxPoint x="90" y="1021" as="sourcePoint" />
            <mxPoint x="302.5" y="1021" as="targetPoint" />
          </mxGeometry>
        </mxCell>
        <mxCell id="RgK95_hisoFLhIq8c-8G-79" value="&lt;div&gt;setSpalla&lt;/div&gt;" style="html=1;verticalAlign=bottom;endArrow=block;entryX=0;entryY=0;labelBackgroundColor=none;fontFamily=Verdana;fontSize=12;edgeStyle=elbowEdgeStyle;elbow=vertical;" edge="1" parent="1">
          <mxGeometry relative="1" as="geometry">
            <mxPoint x="90" y="1061" as="sourcePoint" />
            <mxPoint x="302.5" y="1061" as="targetPoint" />
          </mxGeometry>
        </mxCell>
        <mxCell id="RgK95_hisoFLhIq8c-8G-80" value="&lt;div&gt;setPila&lt;/div&gt;" style="html=1;verticalAlign=bottom;endArrow=block;entryX=0;entryY=0;labelBackgroundColor=none;fontFamily=Verdana;fontSize=12;edgeStyle=elbowEdgeStyle;elbow=vertical;" edge="1" parent="1">
          <mxGeometry relative="1" as="geometry">
            <mxPoint x="90" y="1101" as="sourcePoint" />
            <mxPoint x="302.5" y="1101" as="targetPoint" />
          </mxGeometry>
        </mxCell>
        <mxCell id="RgK95_hisoFLhIq8c-8G-81" value="&lt;div&gt;setImpalcato&lt;/div&gt;" style="html=1;verticalAlign=bottom;endArrow=block;entryX=0;entryY=0;labelBackgroundColor=none;fontFamily=Verdana;fontSize=12;edgeStyle=elbowEdgeStyle;elbow=vertical;" edge="1" parent="1">
          <mxGeometry relative="1" as="geometry">
            <mxPoint x="90" y="1141" as="sourcePoint" />
            <mxPoint x="302.5" y="1141" as="targetPoint" />
          </mxGeometry>
        </mxCell>
        <mxCell id="RgK95_hisoFLhIq8c-8G-82" value="&lt;div&gt;setCuscinetto&lt;/div&gt;" style="html=1;verticalAlign=bottom;endArrow=block;entryX=0;entryY=0;labelBackgroundColor=none;fontFamily=Verdana;fontSize=12;edgeStyle=elbowEdgeStyle;elbow=vertical;" edge="1" parent="1">
          <mxGeometry relative="1" as="geometry">
            <mxPoint x="90" y="1182" as="sourcePoint" />
            <mxPoint x="302.5" y="1182" as="targetPoint" />
          </mxGeometry>
        </mxCell>
        <mxCell id="RgK95_hisoFLhIq8c-8G-83" value="setSistemiProtezione" style="html=1;verticalAlign=bottom;endArrow=block;entryX=0;entryY=0;labelBackgroundColor=none;fontFamily=Verdana;fontSize=12;edgeStyle=elbowEdgeStyle;elbow=vertical;" edge="1" parent="1">
          <mxGeometry relative="1" as="geometry">
            <mxPoint x="90" y="1223" as="sourcePoint" />
            <mxPoint x="302.5" y="1223" as="targetPoint" />
          </mxGeometry>
        </mxCell>
        <mxCell id="RgK95_hisoFLhIq8c-8G-110" value="newLocalizzazione" style="html=1;verticalAlign=bottom;endArrow=block;labelBackgroundColor=none;fontFamily=Verdana;fontSize=12;edgeStyle=elbowEdgeStyle;elbow=vertical;" edge="1" parent="1">
          <mxGeometry relative="1" as="geometry">
            <mxPoint x="321" y="1264" as="sourcePoint" />
            <mxPoint x="620" y="1264" as="targetPoint" />
          </mxGeometry>
        </mxCell>
        <mxCell id="RgK95_hisoFLhIq8c-8G-121" value="newReteStradale" style="html=1;verticalAlign=bottom;endArrow=block;labelBackgroundColor=none;fontFamily=Verdana;fontSize=12;edgeStyle=elbowEdgeStyle;elbow=vertical;" edge="1" parent="1">
          <mxGeometry relative="1" as="geometry">
            <mxPoint x="322" y="1483" as="sourcePoint" />
            <mxPoint x="621" y="1483" as="targetPoint" />
          </mxGeometry>
        </mxCell>
        <mxCell id="RgK95_hisoFLhIq8c-8G-126" value="nuovaLocalizzazione" style="html=1;verticalAlign=bottom;endArrow=block;labelBackgroundColor=none;fontFamily=Verdana;fontSize=12;edgeStyle=elbowEdgeStyle;elbow=vertical;" edge="1" parent="1" target="7baba1c4bc27f4b0-2">
          <mxGeometry x="-0.0057" relative="1" as="geometry">
            <mxPoint x="640" y="1580.05" as="sourcePoint" />
            <mxPoint x="770" y="1582" as="targetPoint" />
            <mxPoint as="offset" />
          </mxGeometry>
        </mxCell>
        <mxCell id="RgK95_hisoFLhIq8c-8G-151" value="&lt;div&gt;inserisci&lt;font style=&quot;font-size: 11px;&quot;&gt;Dati&lt;/font&gt;&lt;/div&gt;&lt;div&gt;&lt;font style=&quot;font-size: 11px;&quot;&gt;Geomorfologici&lt;/font&gt;&lt;/div&gt;" style="html=1;verticalAlign=bottom;endArrow=block;labelBackgroundColor=none;fontFamily=Verdana;fontSize=12;edgeStyle=elbowEdgeStyle;elbow=vertical;" edge="1" parent="1">
          <mxGeometry x="-0.0057" relative="1" as="geometry">
            <mxPoint x="797.5" y="2071.31" as="sourcePoint" />
            <mxPoint x="950" y="2073" as="targetPoint" />
            <mxPoint as="offset" />
          </mxGeometry>
        </mxCell>
        <mxCell id="RgK95_hisoFLhIq8c-8G-177" value="esitoOperazione" style="endArrow=open;endSize=12;dashed=1;html=1;rounded=0;" edge="1" parent="1">
          <mxGeometry width="160" relative="1" as="geometry">
            <mxPoint x="940" y="2890" as="sourcePoint" />
            <mxPoint x="810" y="2890" as="targetPoint" />
          </mxGeometry>
        </mxCell>
        <mxCell id="RgK95_hisoFLhIq8c-8G-180" value="aggiornaView" style="endArrow=open;endSize=12;dashed=1;html=1;rounded=0;" edge="1" parent="1">
          <mxGeometry width="160" relative="1" as="geometry">
            <mxPoint x="780" y="2920" as="sourcePoint" />
            <mxPoint x="350" y="2920" as="targetPoint" />
          </mxGeometry>
        </mxCell>
      </root>
    </mxGraphModel>
  </diagram>
</mxfile>
